# Blender v2.79 (sub 7) OBJ File: 'lim.blend'
# www.blender.org
mtllib materials.mtl
v 1.100000 -0.102594 0.184776
v 1.100000 -0.179130 0.200000
v 1.100000 -0.255667 0.184776
v 0.825000 -0.363906 0.076537
v 0.825000 -0.320552 0.141421
v 0.550000 -0.363906 0.076537
v 0.825000 -0.255667 0.184776
v 0.550000 -0.320552 0.141421
v 0.825000 -0.179130 0.200000
v 0.550000 -0.255667 0.184776
v 0.825000 -0.102594 0.184776
v 0.550000 -0.179130 0.200000
v 0.825000 -0.037709 0.141421
v 0.550000 -0.102594 0.184776
v 1.100000 -0.320552 0.141421
v 1.100000 0.005645 0.076537
v 1.100000 -0.037709 0.141421
v 0.825000 0.005645 0.076537
v 0.550000 -0.037709 0.141421
v 0.550000 0.005646 0.076537
v 0.550000 -0.047487 0.085000
v 0.495000 -0.034476 0.590000
v 0.550000 -0.034476 0.590000
v 0.550000 -0.119476 0.590000
v 0.475000 -0.047487 0.085000
v 0.495000 -0.119476 0.590000
v 0.550000 -0.364475 0.065000
v 1.100000 -0.363906 0.076537
v 0.000000 -0.102594 0.184776
v -0.000000 -0.255667 0.184776
v 0.000000 -0.179130 0.200000
v 0.275000 -0.363906 0.076537
v 0.275000 -0.320552 0.141421
v 0.275000 -0.255667 0.184776
v 0.275000 -0.179130 0.200000
v 0.275000 -0.102594 0.184776
v 0.275000 -0.037709 0.141421
v 0.000000 0.005646 0.076537
v -0.000000 -0.320552 0.141421
v 0.000000 -0.037709 0.141421
v 0.275000 0.005646 0.076537
v -0.000000 -0.363906 0.076537
v 0.605000 -0.034476 0.590000
v 0.605000 -0.119476 0.590000
v 0.625000 -0.047487 0.085000
v 0.625000 -0.364475 0.065000
v 0.550000 -0.136454 0.641978
v 0.550000 -0.157983 0.590000
v 0.550000 -0.136454 0.538022
v 0.475000 -0.364475 0.065000
v 0.550000 -0.084476 0.516492
v 0.550000 -0.032498 0.641978
v 0.550000 -0.032498 0.538022
v 0.550000 -0.010968 0.590000
v 0.550000 -0.084476 0.663508
v 0.825000 -0.084476 0.516492
v 1.100000 -0.136454 0.538022
v 0.825000 -0.136454 0.538022
v 0.825000 -0.157983 0.590000
v 1.100000 -0.157983 0.590000
v 0.825000 -0.136454 0.641978
v 1.100000 -0.084476 0.663507
v 0.825000 -0.084476 0.663507
v 0.825000 -0.032498 0.641978
v 1.100000 -0.010969 0.590000
v 0.825000 -0.010968 0.590000
v 1.100000 -0.084476 0.516492
v 0.825000 -0.032498 0.538022
v 1.100000 -0.032498 0.538022
v 0.275000 -0.084476 0.516492
v 0.000000 -0.136453 0.538022
v 0.000000 -0.084476 0.516492
v 0.275000 -0.157983 0.590000
v 0.275000 -0.136454 0.538022
v 0.275000 -0.136454 0.641978
v 0.000000 -0.157983 0.590000
v 0.000000 -0.084476 0.663508
v 0.000000 -0.136453 0.641978
v 0.275000 -0.032498 0.641978
v 0.275000 -0.084476 0.663508
v 0.000000 -0.010969 0.590000
v 0.000000 -0.032498 0.641978
v 0.275000 -0.032498 0.538022
v 0.275000 -0.010968 0.590000
v 0.000000 -0.032498 0.538022
v 1.100000 -0.136454 0.641978
v 1.100000 -0.032498 0.641978
v 1.100000 -0.102594 -0.184776
v 1.100000 -0.179130 -0.200000
v 1.100000 -0.255667 -0.184776
v 0.825000 -0.363906 -0.076537
v 0.550000 -0.379130 -0.000000
v 0.825000 -0.379130 -0.000000
v 0.825000 -0.320552 -0.141421
v 0.550000 -0.363906 -0.076537
v 0.825000 -0.255667 -0.184776
v 0.550000 -0.320552 -0.141421
v 0.825000 -0.179130 -0.200000
v 0.550000 -0.255667 -0.184776
v 0.825000 -0.102594 -0.184776
v 0.550000 -0.179130 -0.200000
v 0.825000 -0.037709 -0.141421
v 0.550000 -0.102594 -0.184776
v 1.100000 -0.320552 -0.141421
v 1.100000 0.005645 -0.076537
v 1.100000 -0.037709 -0.141421
v 0.825000 0.005645 -0.076537
v 0.550000 -0.037709 -0.141421
v 0.825000 0.020870 -0.000000
v 0.550000 0.005646 -0.076537
v 1.100000 -0.379130 -0.000000
v 1.100000 0.020870 -0.000000
v 0.550000 -0.047487 -0.085000
v 0.495000 -0.034476 -0.590000
v 0.550000 -0.034476 -0.590000
v 0.550000 -0.119476 -0.590000
v 0.475000 -0.047487 -0.085000
v 0.495000 -0.119476 -0.590000
v 0.550000 -0.364475 -0.065000
v 1.100000 -0.363906 -0.076537
v -0.000000 -0.102594 -0.184776
v -0.000000 -0.255667 -0.184776
v -0.000000 -0.179130 -0.200000
v 0.275000 -0.363906 -0.076537
v 0.275000 -0.379130 -0.000000
v 0.275000 -0.320552 -0.141421
v 0.275000 -0.255667 -0.184776
v 0.275000 -0.179130 -0.200000
v 0.275000 -0.102594 -0.184776
v 0.275000 -0.037709 -0.141421
v -0.000000 0.005646 -0.076537
v -0.000000 -0.320552 -0.141421
v -0.000000 -0.037709 -0.141421
v 0.275000 0.005646 -0.076537
v 0.275000 0.020870 -0.000000
v -0.000000 -0.379130 0.000000
v -0.000000 -0.363906 -0.076537
v 0.605000 -0.034476 -0.590000
v 0.605000 -0.119476 -0.590000
v 0.625000 -0.047487 -0.085000
v 0.625000 -0.364475 -0.065000
v 0.550000 -0.136454 -0.641978
v 0.550000 -0.157983 -0.590000
v 0.550000 -0.136454 -0.538022
v 0.000000 0.020870 -0.000000
v 0.550000 0.020870 -0.000000
v 0.475000 -0.364475 -0.065000
v 0.550000 -0.084476 -0.516492
v 0.550000 -0.032498 -0.641978
v 0.550000 -0.032498 -0.538022
v 0.550000 -0.010968 -0.590000
v 0.550000 -0.084476 -0.663508
v 0.825000 -0.084476 -0.516493
v 1.100000 -0.136454 -0.538022
v 0.825000 -0.136454 -0.538022
v 0.825000 -0.157983 -0.590000
v 1.100000 -0.157983 -0.590000
v 0.825000 -0.136454 -0.641978
v 1.100000 -0.084476 -0.663508
v 0.825000 -0.084476 -0.663508
v 0.825000 -0.032498 -0.641978
v 1.100000 -0.010969 -0.590000
v 0.825000 -0.010968 -0.590000
v 1.100000 -0.084476 -0.516493
v 0.825000 -0.032498 -0.538022
v 1.100000 -0.032498 -0.538022
v 0.275000 -0.084476 -0.516492
v -0.000000 -0.136453 -0.538022
v -0.000000 -0.084476 -0.516492
v 0.275000 -0.157983 -0.590000
v 0.275000 -0.136454 -0.538022
v 0.275000 -0.136454 -0.641978
v -0.000000 -0.157983 -0.590000
v -0.000000 -0.084476 -0.663508
v -0.000000 -0.136453 -0.641978
v 0.275000 -0.032498 -0.641978
v 0.275000 -0.084476 -0.663508
v -0.000000 -0.010969 -0.590000
v -0.000000 -0.032498 -0.641978
v 0.275000 -0.032498 -0.538022
v 0.275000 -0.010968 -0.590000
v -0.000000 -0.032498 -0.538022
v 1.100000 -0.136454 -0.641978
v 1.100000 -0.032498 -0.641978
vn -0.0000 -0.9239 0.3827
vn -0.0000 -1.0000 0.0000
vn -0.0000 -0.7071 0.7071
vn 0.0000 -0.3827 0.9239
vn 0.0000 0.0000 1.0000
vn 0.0000 0.3827 0.9239
vn 0.0000 0.7071 0.7071
vn 0.0000 0.9239 0.3827
vn 0.0000 1.0000 0.0000
vn 0.0000 0.9997 -0.0258
vn -0.9992 -0.0022 0.0393
vn -0.9992 -0.0007 0.0395
vn -0.9992 0.0000 0.0396
vn -0.0000 0.0630 -0.9980
vn 0.0000 -0.9062 0.4229
vn -1.0000 0.0000 0.0000
vn 0.9992 -0.0022 0.0393
vn 0.9992 -0.0007 0.0395
vn 0.9992 -0.0025 0.0392
vn 1.0000 0.0000 0.0000
vn -0.9992 -0.0025 0.0392
vn 0.9992 0.0000 0.0396
vn -0.0000 -0.9239 -0.3827
vn -0.0000 -0.7071 -0.7071
vn -0.0000 -0.3827 -0.9239
vn -0.0000 0.0000 -1.0000
vn -0.0000 0.3827 -0.9239
vn 0.0000 0.7071 -0.7071
vn 0.0000 0.9239 -0.3827
vn 0.0000 0.9997 0.0258
vn -0.9992 -0.0022 -0.0393
vn -0.9992 0.0000 -0.0396
vn -0.9992 -0.0007 -0.0395
vn -0.0000 0.0630 0.9980
vn 0.0000 -0.9062 -0.4229
vn 0.9992 -0.0022 -0.0393
vn 0.9992 -0.0025 -0.0392
vn 0.9992 -0.0007 -0.0395
vn -0.9992 -0.0025 -0.0392
vn 0.9992 0.0000 -0.0396
usemtl Remap1_NoAO_Edge_Spine
s 1
f 4//1 92//2 93//2
f 5//3 6//1 4//1
f 7//4 8//3 5//3
f 9//5 10//4 7//4
f 11//6 12//5 9//5
f 13//7 14//6 11//6
f 18//8 19//7 13//7
f 109//9 20//8 18//8
f 21//10 22//10 23//10
f 22//5 24//5 23//5
f 25//11 26//12 22//13
f 27//14 25//14 21//14
f 26//15 27//15 24//15
f 112//9 18//8 16//8
f 16//8 13//7 17//7
f 17//7 11//6 1//6
f 1//6 9//5 2//5
f 2//5 7//4 3//4
f 3//4 5//3 15//3
f 15//3 4//1 28//1
f 28//1 93//2 111//2
f 92//2 32//1 125//2
f 6//1 33//3 32//1
f 8//3 34//4 33//3
f 10//4 35//5 34//4
f 12//5 36//6 35//5
f 14//6 37//7 36//6
f 19//7 41//8 37//7
f 20//8 135//9 41//8
f 43//10 21//10 23//10
f 21//16 24//16 23//16
f 43//5 24//5 44//5
f 45//17 44//18 46//19
f 45//14 27//14 21//14
f 47//20 48//20 49//20
f 44//15 27//15 46//15
f 41//8 145//9 38//8
f 37//7 38//8 40//7
f 36//6 40//7 29//6
f 35//5 29//6 31//5
f 34//4 31//5 30//4
f 33//3 30//4 39//3
f 32//1 39//3 42//1
f 125//2 42//1 136//2
f 4//1 6//1 92//2
f 5//3 8//3 6//1
f 7//4 10//4 8//3
f 9//5 12//5 10//4
f 11//6 14//6 12//5
f 13//7 19//7 14//6
f 18//8 20//8 19//7
f 109//9 146//9 20//8
f 21//10 25//10 22//10
f 22//5 26//5 24//5
f 25//11 50//21 26//12
f 27//14 50//14 25//14
f 26//15 50//15 27//15
f 112//9 109//9 18//8
f 16//8 18//8 13//7
f 17//7 13//7 11//6
f 1//6 11//6 9//5
f 2//5 9//5 7//4
f 3//4 7//4 5//3
f 15//3 5//3 4//1
f 28//1 4//1 93//2
f 92//2 6//1 32//1
f 6//1 8//3 33//3
f 8//3 10//4 34//4
f 10//4 12//5 35//5
f 12//5 14//6 36//6
f 14//6 19//7 37//7
f 19//7 20//8 41//8
f 20//8 146//9 135//9
f 43//10 45//10 21//10
f 21//16 27//16 24//16
f 43//5 23//5 24//5
f 45//17 43//22 44//18
f 45//14 46//14 27//14
f 49//20 51//20 52//20
f 51//20 53//20 52//20
f 53//20 54//20 52//20
f 52//20 55//20 49//20
f 55//20 47//20 49//20
f 44//15 24//15 27//15
f 41//8 135//9 145//9
f 37//7 41//8 38//8
f 36//6 37//7 40//7
f 35//5 36//6 29//6
f 34//4 35//5 31//5
f 33//3 34//4 30//4
f 32//1 33//3 39//3
f 125//2 32//1 42//1
f 91//23 93//2 92//2
f 94//24 91//23 95//23
f 96//25 94//24 97//24
f 98//26 96//25 99//25
f 100//27 98//26 101//26
f 102//28 100//27 103//27
f 107//29 102//28 108//28
f 109//9 107//29 110//29
f 113//30 115//30 114//30
f 114//26 115//26 116//26
f 117//31 114//32 118//33
f 119//34 113//34 117//34
f 118//35 116//35 119//35
f 112//9 105//29 107//29
f 105//29 106//28 102//28
f 106//28 88//27 100//27
f 88//27 89//26 98//26
f 89//26 90//25 96//25
f 90//25 104//24 94//24
f 104//24 120//23 91//23
f 120//23 111//2 93//2
f 92//2 125//2 124//23
f 95//23 124//23 126//24
f 97//24 126//24 127//25
f 99//25 127//25 128//26
f 101//26 128//26 129//27
f 103//27 129//27 130//28
f 108//28 130//28 134//29
f 110//29 134//29 135//9
f 138//30 115//30 113//30
f 113//16 115//16 116//16
f 138//26 139//26 116//26
f 140//36 141//37 139//38
f 140//34 113//34 119//34
f 142//20 144//20 143//20
f 139//35 141//35 119//35
f 134//29 131//29 145//9
f 130//28 133//28 131//29
f 129//27 121//27 133//28
f 128//26 123//26 121//27
f 127//25 122//25 123//26
f 126//24 132//24 122//25
f 124//23 137//23 132//24
f 125//2 136//2 137//23
f 91//23 92//2 95//23
f 94//24 95//23 97//24
f 96//25 97//24 99//25
f 98//26 99//25 101//26
f 100//27 101//26 103//27
f 102//28 103//27 108//28
f 107//29 108//28 110//29
f 109//9 110//29 146//9
f 113//30 114//30 117//30
f 114//26 116//26 118//26
f 117//31 118//33 147//39
f 119//34 117//34 147//34
f 118//35 119//35 147//35
f 112//9 107//29 109//9
f 105//29 102//28 107//29
f 106//28 100//27 102//28
f 88//27 98//26 100//27
f 89//26 96//25 98//26
f 90//25 94//24 96//25
f 104//24 91//23 94//24
f 120//23 93//2 91//23
f 92//2 124//23 95//23
f 95//23 126//24 97//24
f 97//24 127//25 99//25
f 99//25 128//26 101//26
f 101//26 129//27 103//27
f 103//27 130//28 108//28
f 108//28 134//29 110//29
f 110//29 135//9 146//9
f 138//30 113//30 140//30
f 113//16 116//16 119//16
f 138//26 116//26 115//26
f 140//36 139//38 138//40
f 140//34 119//34 141//34
f 144//20 149//20 148//20
f 148//20 149//20 150//20
f 150//20 149//20 151//20
f 149//20 144//20 152//20
f 152//20 144//20 142//20
f 139//35 119//35 116//35
f 134//29 145//9 135//9
f 130//28 131//29 134//29
f 129//27 133//28 130//28
f 128//26 121//27 129//27
f 127//25 123//26 128//26
f 126//24 122//25 127//25
f 124//23 132//24 126//24
f 125//2 137//23 124//23
usemtl Remap2_NoAO_Edge_Rail
f 56//26 57//24 58//24
f 57//24 59//2 58//24
f 60//2 61//3 59//2
f 61//3 62//5 63//5
f 62//5 64//7 63//5
f 64//7 65//9 66//9
f 65//9 68//28 66//9
f 69//28 56//26 68//28
f 68//28 51//26 53//28
f 54//9 68//28 53//28
f 64//7 54//9 52//7
f 63//5 52//7 55//5
f 47//3 63//5 55//5
f 59//2 47//3 48//2
f 58//24 48//2 49//24
f 56//26 49//24 51//26
f 70//26 71//24 72//26
f 73//2 71//24 74//24
f 75//3 76//2 73//2
f 75//3 77//5 78//3
f 79//7 77//5 80//5
f 79//7 81//9 82//7
f 83//28 81//9 84//9
f 70//26 85//28 83//28
f 51//26 83//28 53//28
f 54//9 83//28 84//9
f 54//9 79//7 52//7
f 52//7 80//5 55//5
f 47//3 80//5 75//3
f 47//3 73//2 48//2
f 48//2 74//24 49//24
f 49//24 70//26 51//26
f 56//26 67//26 57//24
f 57//24 60//2 59//2
f 60//2 86//3 61//3
f 61//3 86//3 62//5
f 62//5 87//7 64//7
f 64//7 87//7 65//9
f 65//9 69//28 68//28
f 69//28 67//26 56//26
f 68//28 56//26 51//26
f 54//9 66//9 68//28
f 64//7 66//9 54//9
f 63//5 64//7 52//7
f 47//3 61//3 63//5
f 59//2 61//3 47//3
f 58//24 59//2 48//2
f 56//26 58//24 49//24
f 70//26 74//24 71//24
f 73//2 76//2 71//24
f 75//3 78//3 76//2
f 75//3 80//5 77//5
f 79//7 82//7 77//5
f 79//7 84//9 81//9
f 83//28 85//28 81//9
f 70//26 72//26 85//28
f 51//26 70//26 83//28
f 54//9 53//28 83//28
f 54//9 84//9 79//7
f 52//7 79//7 80//5
f 47//3 55//5 80//5
f 47//3 75//3 73//2
f 48//2 73//2 74//24
f 49//24 74//24 70//26
f 153//5 155//3 154//3
f 154//3 155//3 156//2
f 157//2 156//2 158//24
f 158//24 160//26 159//26
f 159//26 160//26 161//28
f 161//28 163//9 162//9
f 162//9 163//9 165//7
f 166//7 165//7 153//5
f 165//7 150//7 148//5
f 151//9 150//7 165//7
f 161//28 149//28 151//9
f 160//26 152//26 149//28
f 142//24 152//26 160//26
f 156//2 143//2 142//24
f 155//3 144//3 143//2
f 153//5 148//5 144//3
f 167//5 169//5 168//3
f 170//2 171//3 168//3
f 172//24 170//2 173//2
f 172//24 175//24 174//26
f 176//28 177//26 174//26
f 176//28 179//28 178//9
f 180//7 181//9 178//9
f 167//5 180//7 182//7
f 148//5 150//7 180//7
f 151//9 181//9 180//7
f 151//9 149//28 176//28
f 149//28 152//26 177//26
f 142//24 172//24 177//26
f 142//24 143//2 170//2
f 143//2 144//3 171//3
f 144//3 148//5 167//5
f 153//5 154//3 164//5
f 154//3 156//2 157//2
f 157//2 158//24 183//24
f 158//24 159//26 183//24
f 159//26 161//28 184//28
f 161//28 162//9 184//28
f 162//9 165//7 166//7
f 166//7 153//5 164//5
f 165//7 148//5 153//5
f 151//9 165//7 163//9
f 161//28 151//9 163//9
f 160//26 149//28 161//28
f 142//24 160//26 158//24
f 156//2 142//24 158//24
f 155//3 143//2 156//2
f 153//5 144//3 155//3
f 167//5 168//3 171//3
f 170//2 168//3 173//2
f 172//24 173//2 175//24
f 172//24 174//26 177//26
f 176//28 174//26 179//28
f 176//28 178//9 181//9
f 180//7 178//9 182//7
f 167//5 182//7 169//5
f 148//5 180//7 167//5
f 151//9 180//7 150//7
f 151//9 176//28 181//9
f 149//28 177//26 176//28
f 142//24 177//26 152//26
f 142//24 170//2 172//24
f 143//2 171//3 170//2
f 144//3 167//5 171//3
usemtl Remap1_NoBleed_NoAO
f 1//20 2//20 3//20
f 15//20 16//20 17//20
f 16//20 111//20 112//20
f 1//20 15//20 17//20
f 29//16 30//16 31//16
f 38//16 39//16 40//16
f 38//16 136//16 42//16
f 29//16 39//16 30//16
f 15//20 28//20 16//20
f 16//20 28//20 111//20
f 1//20 3//20 15//20
f 38//16 42//16 39//16
f 38//16 145//16 136//16
f 29//16 40//16 39//16
f 88//20 90//20 89//20
f 104//20 106//20 105//20
f 105//20 112//20 111//20
f 88//20 106//20 104//20
f 121//16 123//16 122//16
f 131//16 133//16 132//16
f 131//16 137//16 136//16
f 121//16 122//16 132//16
f 104//20 105//20 120//20
f 105//20 111//20 120//20
f 88//20 104//20 90//20
f 131//16 132//16 137//16
f 131//16 136//16 145//16
f 121//16 132//16 133//16
usemtl Remap2_NoBleed_NoAO
f 60//20 67//20 65//20
f 76//16 77//16 81//16
f 60//20 57//20 67//20
f 67//20 69//20 65//20
f 65//20 87//20 62//20
f 62//20 86//20 65//20
f 86//20 60//20 65//20
f 72//16 71//16 76//16
f 76//16 78//16 77//16
f 77//16 82//16 81//16
f 81//16 85//16 72//16
f 72//16 76//16 81//16
f 157//20 162//20 164//20
f 173//16 178//16 174//16
f 157//20 164//20 154//20
f 164//20 162//20 166//20
f 162//20 159//20 184//20
f 159//20 162//20 183//20
f 183//20 162//20 157//20
f 169//16 173//16 168//16
f 173//16 174//16 175//16
f 174//16 178//16 179//16
f 178//16 169//16 182//16
f 169//16 178//16 173//16
