# Blender v2.79 (sub 7) OBJ File: 'pipeline.blend'
# www.blender.org
mtllib materials.mtl
v 0.412500 -1.105014 -0.219801
v -0.000000 -1.105014 -0.219801
v 0.412500 -1.040902 -0.431156
v -0.000000 -1.040902 -0.431156
v 0.412500 -0.936787 -0.625940
v -0.000000 -0.936787 -0.625940
v 0.412500 -0.796672 -0.796671
v -0.000000 -0.796671 -0.796671
v 0.412500 -0.625940 -0.936787
v -0.000000 -0.625940 -0.936787
v 0.412500 -0.431156 -0.985830
v -0.000000 -0.431156 -0.985830
v 0.412500 -0.219801 -0.985830
v -0.000000 -0.219801 -0.985830
v 0.412500 -0.084500 -0.985830
v 1.649999 -0.084500 -0.985830
v 1.649999 -0.219801 -0.985830
v 0.825000 -0.219801 -0.985830
v 1.237500 -0.084500 -0.985830
v 1.237500 -0.219801 -0.985830
v 0.825000 -0.431156 -0.985830
v 1.237500 -0.431156 -0.985830
v 0.825000 -0.625940 -0.936787
v 1.237500 -0.625940 -0.936787
v 0.825000 -0.796671 -0.796671
v 1.237500 -0.796671 -0.796671
v 0.825000 -0.936787 -0.625940
v 1.237500 -0.936787 -0.625940
v 0.825000 -1.040902 -0.431156
v 1.237500 -1.040902 -0.431156
v 0.825000 -1.105014 -0.219801
v 1.237500 -1.105014 -0.219801
v 1.237500 -0.084500 -0.887247
v 0.000000 0.812497 -0.887247
v 1.649999 -0.084500 -0.887247
v 0.825000 0.812497 -0.887247
v 1.649999 -1.105014 -0.219801
v 1.649999 -1.040902 -0.431156
v 1.649999 -0.936787 -0.625940
v 1.649999 -0.796671 -0.796671
v 1.649999 -0.625940 -0.936787
v 1.649999 -0.431156 -0.985830
v 0.825000 -0.084500 -0.985830
v 0.412500 0.812497 -0.887247
v -0.000000 -0.084500 -0.985830
v -0.000000 -0.084500 -0.887247
v 0.825000 -0.084500 -0.887247
v 0.412500 -0.084500 -0.887247
v 1.649999 0.812497 -0.887247
v 1.237499 0.812497 -0.887247
v 0.412500 -1.126663 -0.000000
v -0.000000 -1.126663 0.000000
v 0.412500 -1.105014 0.219801
v -0.000000 -1.105014 0.219801
v 0.412500 -1.040902 0.431156
v -0.000000 -1.040902 0.431156
v 0.412500 -0.936787 0.625940
v -0.000000 -0.936787 0.625940
v 0.412500 -0.796672 0.796671
v 0.000000 -0.796671 0.796671
v 0.412500 -0.625940 0.936787
v 0.000000 -0.625940 0.936787
v 0.412500 -0.431156 0.985830
v 0.000000 -0.431156 0.985830
v 0.412500 -0.219801 0.985830
v 0.000000 -0.219801 0.985830
v 0.412500 -0.084500 0.985830
v 1.649999 -0.084500 0.985830
v 1.649999 -0.000000 -0.000000
v 1.649999 -0.219801 0.985830
v 0.825000 -0.219801 0.985830
v 1.237500 -0.084500 0.985830
v 1.237500 -0.219801 0.985830
v 0.825000 -0.431156 0.985830
v 1.237500 -0.431156 0.985830
v 0.825000 -0.625940 0.936787
v 1.237500 -0.625940 0.936787
v 0.825000 -0.796671 0.796670
v 1.237500 -0.796671 0.796670
v 0.825000 -0.936787 0.625940
v 1.237500 -0.936787 0.625940
v 0.825000 -1.040902 0.431156
v 1.237500 -1.040902 0.431156
v 0.825000 -1.105014 0.219801
v 1.237500 -1.105014 0.219801
v 0.825000 -1.126663 -0.000000
v 1.237500 -1.126663 -0.000000
v 1.237500 -0.084500 0.887247
v 0.000000 0.812497 0.887247
v 1.649999 -0.084500 0.887247
v 0.825000 0.812497 0.887247
v 1.649999 -1.126663 -0.000000
v 1.649999 -1.105014 0.219801
v 1.649999 -1.040902 0.431156
v 1.649999 -0.936787 0.625940
v 1.649999 -0.796671 0.796670
v 1.649999 -0.625940 0.936787
v 1.649999 -0.431156 0.985830
v 0.825000 -0.084500 0.985830
v 0.412500 0.812497 0.887247
v 0.000000 -0.084500 0.985830
v 0.000000 0.000000 0.000000
v 0.000000 -0.084500 0.887247
v 0.000000 0.812497 -0.000000
v 0.825000 -0.084500 0.887247
v 0.412500 -0.084500 0.887247
v 1.649999 0.812497 0.887247
v 1.237499 0.812497 0.887247
v 1.237499 0.812497 -0.000000
v 1.649999 0.812497 -0.000000
v 0.412500 0.812497 -0.000000
v 0.825000 0.812497 -0.000000
vn -0.0000 -0.9952 -0.0980
vn -0.0000 -0.9569 -0.2903
vn 0.0000 -0.8819 -0.4714
vn -0.0000 -0.7730 -0.6344
vn -0.0000 -0.6344 -0.7730
vn 0.0000 -0.2442 -0.9697
vn 0.0000 0.0000 -1.0000
vn 1.0000 -0.0000 0.0000
vn -1.0000 0.0000 0.0000
vn 0.0000 1.0000 0.0000
vn 0.0000 -0.9952 0.0980
vn 0.0000 -0.9569 0.2903
vn 0.0000 -0.8819 0.4714
vn -0.0000 -0.7730 0.6344
vn -0.0000 -0.6344 0.7730
vn 0.0000 -0.2442 0.9697
vn 0.0000 0.0000 1.0000
usemtl VisibleMask
s 1
f 52//1 1//1 51//1
f 2//2 3//2 1//2
f 4//3 5//3 3//3
f 6//4 7//4 5//4
f 8//5 9//5 7//5
f 10//6 11//6 9//6
f 12//7 13//7 11//7
f 14//7 15//7 13//7
f 17//8 35//8 69//8
f 18//7 19//7 20//7
f 21//7 20//7 22//7
f 23//6 22//6 24//6
f 25//5 24//5 26//5
f 27//4 26//4 28//4
f 29//3 28//3 30//3
f 31//2 30//2 32//2
f 86//1 32//1 87//1
f 87//1 37//1 92//1
f 32//2 38//2 37//2
f 30//3 39//3 38//3
f 28//4 40//4 39//4
f 26//5 41//5 40//5
f 24//6 42//6 41//6
f 22//7 17//7 42//7
f 20//7 16//7 17//7
f 37//8 69//8 92//8
f 38//8 69//8 37//8
f 39//8 69//8 38//8
f 40//8 69//8 39//8
f 41//8 69//8 40//8
f 42//8 69//8 41//8
f 17//8 69//8 42//8
f 13//7 43//7 18//7
f 11//7 18//7 21//7
f 9//6 21//6 23//6
f 7//5 23//5 25//5
f 5//4 25//4 27//4
f 3//3 27//3 29//3
f 1//2 29//2 31//2
f 51//1 31//1 86//1
f 14//9 46//9 45//9
f 12//9 102//9 14//9
f 10//9 102//9 12//9
f 8//9 102//9 10//9
f 6//9 102//9 8//9
f 4//9 102//9 6//9
f 2//9 102//9 4//9
f 52//9 102//9 2//9
f 43//10 33//10 19//10
f 47//7 36//7 50//7
f 19//10 35//10 16//10
f 15//10 47//10 43//10
f 50//10 110//10 49//10
f 33//7 49//7 35//7
f 47//7 50//7 33//7
f 33//7 50//7 49//7
f 17//8 16//8 35//8
f 52//1 2//1 1//1
f 2//2 4//2 3//2
f 4//3 6//3 5//3
f 6//4 8//4 7//4
f 8//5 10//5 9//5
f 10//6 12//6 11//6
f 12//7 14//7 13//7
f 14//7 45//7 15//7
f 18//7 43//7 19//7
f 21//7 18//7 20//7
f 23//6 21//6 22//6
f 25//5 23//5 24//5
f 27//4 25//4 26//4
f 29//3 27//3 28//3
f 31//2 29//2 30//2
f 86//1 31//1 32//1
f 87//1 32//1 37//1
f 32//2 30//2 38//2
f 30//3 28//3 39//3
f 28//4 26//4 40//4
f 26//5 24//5 41//5
f 24//6 22//6 42//6
f 22//7 20//7 17//7
f 20//7 19//7 16//7
f 13//7 15//7 43//7
f 11//7 13//7 18//7
f 9//6 11//6 21//6
f 7//5 9//5 23//5
f 5//4 7//4 25//4
f 3//3 5//3 27//3
f 1//2 3//2 29//2
f 51//1 1//1 31//1
f 44//10 112//10 36//10
f 48//7 44//7 36//7
f 49//8 69//8 35//8
f 46//9 14//9 102//9
f 45//10 48//10 15//10
f 34//9 102//9 104//9
f 48//7 36//7 47//7
f 46//7 44//7 48//7
f 46//7 34//7 44//7
f 36//10 109//10 50//10
f 34//10 111//10 44//10
f 52//11 51//11 53//11
f 54//12 53//12 55//12
f 56//13 55//13 57//13
f 58//14 57//14 59//14
f 60//15 59//15 61//15
f 62//16 61//16 63//16
f 64//17 63//17 65//17
f 66//17 65//17 67//17
f 70//8 69//8 90//8
f 71//17 73//17 72//17
f 74//17 75//17 73//17
f 76//16 77//16 75//16
f 78//15 79//15 77//15
f 80//14 81//14 79//14
f 82//13 83//13 81//13
f 84//12 85//12 83//12
f 86//11 87//11 85//11
f 87//11 92//11 93//11
f 85//12 93//12 94//12
f 83//13 94//13 95//13
f 81//14 95//14 96//14
f 79//15 96//15 97//15
f 77//16 97//16 98//16
f 75//17 98//17 70//17
f 73//17 70//17 68//17
f 93//8 92//8 69//8
f 94//8 93//8 69//8
f 95//8 94//8 69//8
f 96//8 95//8 69//8
f 97//8 96//8 69//8
f 98//8 97//8 69//8
f 70//8 98//8 69//8
f 65//17 71//17 99//17
f 63//17 74//17 71//17
f 61//16 76//16 74//16
f 59//15 78//15 76//15
f 57//14 80//14 78//14
f 55//13 82//13 80//13
f 53//12 84//12 82//12
f 51//11 86//11 84//11
f 66//9 101//9 103//9
f 64//9 66//9 102//9
f 62//9 64//9 102//9
f 60//9 62//9 102//9
f 58//9 60//9 102//9
f 56//9 58//9 102//9
f 54//9 56//9 102//9
f 52//9 54//9 102//9
f 88//10 99//10 72//10
f 105//17 108//17 91//17
f 90//10 72//10 68//10
f 105//10 67//10 99//10
f 110//10 108//10 107//10
f 88//17 90//17 107//17
f 105//17 88//17 108//17
f 88//17 107//17 108//17
f 70//8 90//8 68//8
f 52//11 53//11 54//11
f 54//12 55//12 56//12
f 56//13 57//13 58//13
f 58//14 59//14 60//14
f 60//15 61//15 62//15
f 62//16 63//16 64//16
f 64//17 65//17 66//17
f 66//17 67//17 101//17
f 71//17 72//17 99//17
f 74//17 73//17 71//17
f 76//16 75//16 74//16
f 78//15 77//15 76//15
f 80//14 79//14 78//14
f 82//13 81//13 80//13
f 84//12 83//12 82//12
f 86//11 85//11 84//11
f 87//11 93//11 85//11
f 85//12 94//12 83//12
f 83//13 95//13 81//13
f 81//14 96//14 79//14
f 79//15 97//15 77//15
f 77//16 98//16 75//16
f 75//17 70//17 73//17
f 73//17 68//17 72//17
f 65//17 99//17 67//17
f 63//17 71//17 65//17
f 61//16 74//16 63//16
f 59//15 76//15 61//15
f 57//14 78//14 59//14
f 55//13 80//13 57//13
f 53//12 82//12 55//12
f 51//11 84//11 53//11
f 112//10 100//10 91//10
f 106//17 91//17 100//17
f 107//8 69//8 110//8
f 103//9 102//9 66//9
f 106//10 101//10 67//10
f 89//9 102//9 103//9
f 106//17 105//17 91//17
f 103//17 106//17 100//17
f 103//17 100//17 89//17
f 109//10 91//10 108//10
f 111//10 89//10 100//10
f 43//10 47//10 33//10
f 19//10 33//10 35//10
f 15//10 48//10 47//10
f 50//10 109//10 110//10
f 44//10 111//10 112//10
f 49//8 110//8 69//8
f 45//10 46//10 48//10
f 34//9 46//9 102//9
f 36//10 112//10 109//10
f 34//10 104//10 111//10
f 88//10 105//10 99//10
f 90//10 88//10 72//10
f 105//10 106//10 67//10
f 110//10 109//10 108//10
f 112//10 111//10 100//10
f 107//8 90//8 69//8
f 106//10 103//10 101//10
f 89//9 104//9 102//9
f 109//10 112//10 91//10
f 111//10 104//10 89//10
