# Blender 4.1.1
# www.blender.org
mtllib materials.mtl
o pipeline
v 0.206250 -1.701801 0.059834
v 0.206250 -1.631461 0.156649
v 0.206250 -1.517649 0.193629
v 0.206250 -1.403837 0.156649
v 0.823164 0.000000 1.084075
v 0.206250 -0.054943 0.914977
v 0.206250 0.000000 0.897125
v 0.206250 -0.088901 0.961714
v 0.206250 -0.088901 1.019486
v 0.206250 -0.054943 1.066223
v 0.206250 0.000000 1.084075
v 0.206250 0.088901 1.019486
v 0.206250 0.088901 0.961714
v 0.206250 0.054943 0.914977
v -0.000000 -0.054943 0.914977
v -0.000000 0.000000 0.897125
v -0.000000 -0.088901 0.961714
v -0.000000 -0.088901 1.019486
v -0.000000 0.088901 1.019486
v -0.000000 0.054943 0.914977
v 0.206250 -1.333497 0.059834
v 0.000000 -1.333497 0.059834
v 0.206250 0.054943 1.066223
v -0.000000 0.054943 1.066223
v -0.000000 -1.701801 0.059834
v -0.000000 -1.631461 0.156649
v -0.000000 -1.403837 0.156649
v -0.000000 -0.054943 1.066223
v -0.000000 0.088901 0.961714
v -0.000000 -1.517649 0.193629
v -0.000000 0.000000 1.084075
v 0.412500 -1.631461 0.156649
v 0.412500 -1.517649 0.193629
v 0.412500 -1.403837 0.156649
v 0.412500 -1.701801 0.059834
v 0.412500 -1.701800 0.029917
v 0.412500 -1.333497 0.059834
v 0.618750 -1.403837 0.156649
v 0.618750 -1.517649 0.193629
v 0.618750 -1.631461 0.156649
v 0.618750 -1.701801 0.059834
v 0.618750 -1.701800 0.014958
v 0.618750 -1.333497 0.059834
v 0.412584 -0.088901 0.961714
v 0.412584 0.054943 0.914977
v 0.412584 0.088901 0.961714
v 0.412584 -0.088901 1.019486
v 0.412584 -0.054943 0.914977
v 0.412584 -0.054943 1.066223
v 0.412584 0.088901 0.990600
v 0.411665 0.000000 1.084075
v 0.412584 0.088901 1.019486
v 0.412584 0.000000 0.897125
v 0.412584 0.054943 1.066223
v 0.618792 -0.088901 0.961714
v 0.618792 0.088901 1.019486
v 0.617414 0.000000 1.084075
v 0.618792 0.088901 1.005043
v 0.618792 -0.054943 1.066223
v 0.618792 -0.054943 0.914977
v 0.618792 -0.088901 1.019486
v 0.618792 0.088901 0.961714
v 0.618792 0.054943 0.914977
v 0.618792 0.000000 0.897125
v 0.618792 0.054943 1.066223
v 0.825000 -1.701801 0.059834
v 0.825000 -1.631461 0.156649
v 0.825000 -1.517649 0.193629
v 0.825000 -1.403837 0.156649
v 0.825000 -1.333497 0.059834
v 1.443750 -1.701801 0.059834
v 1.443750 -1.631461 0.156649
v 1.443750 -1.517649 0.193629
v 1.443750 -1.403837 0.156649
v 0.825000 0.000000 0.897125
v 0.825000 -0.054943 0.914977
v 0.825000 -0.088901 0.961714
v 0.825000 -0.088901 1.019486
v 0.826836 0.000000 1.084075
v 0.825000 -0.054943 1.066223
v 0.825000 0.054943 1.066223
v 0.825000 0.088901 1.019486
v 0.825000 0.088901 0.961714
v 0.825000 0.054943 0.914977
v 1.443750 -0.054943 0.914977
v 1.443750 0.000000 0.897125
v 1.443750 -0.088901 0.961714
v 1.443750 -0.088901 1.019486
v 1.443750 -0.054943 1.066223
v 1.443750 0.000000 1.084075
v 1.443750 0.088901 1.019486
v 1.443750 0.088901 0.961714
v 1.443750 0.054943 0.914977
v 1.650000 -0.054943 0.914977
v 1.650000 0.000000 0.897125
v 1.650000 -0.088901 0.961714
v 1.650000 -0.088901 1.019486
v 1.650000 0.088901 1.019486
v 1.650000 0.054943 0.914977
v 1.443750 -1.333497 0.059834
v 1.650000 -1.333497 0.059834
v 1.443750 0.054943 1.066223
v 1.650000 0.054943 1.066223
v 1.650000 -1.701801 0.059834
v 1.650000 -1.631461 0.156649
v 1.650000 -1.403837 0.156649
v 1.650000 -0.054943 1.066223
v 1.650000 0.088901 0.961714
v 1.650000 -1.517649 0.193629
v 1.650000 0.000000 1.084075
v 1.237500 -1.631461 0.156649
v 1.237500 -1.517649 0.193629
v 1.237500 -1.403837 0.156649
v 1.237500 -1.701801 0.059834
v 1.237500 -1.701800 0.029917
v 1.237500 -1.333497 0.059834
v 1.031250 -1.403837 0.156649
v 1.031250 -1.517649 0.193629
v 1.031250 -1.631461 0.156649
v 1.031250 -1.701801 0.059834
v 1.031250 -1.701800 0.014958
v 1.031250 -1.333497 0.059834
v 1.237417 -0.088901 0.961714
v 1.237417 0.054943 0.914977
v 1.237417 0.088901 0.961714
v 1.237417 -0.088901 1.019486
v 1.237417 -0.054943 0.914977
v 1.237417 -0.054943 1.066223
v 1.237417 0.088901 0.990600
v 1.238335 0.000000 1.084075
v 1.237417 0.088901 1.019486
v 1.237417 0.000000 0.897125
v 1.237417 0.054943 1.066223
v 1.031208 -0.088901 0.961714
v 1.031208 0.088901 1.019486
v 1.032586 0.000000 1.084075
v 1.031208 0.088901 1.005043
v 1.031208 -0.054943 1.066223
v 1.031208 -0.054943 0.914977
v 1.031208 -0.088901 1.019486
v 1.031208 0.088901 0.961714
v 1.031208 0.054943 0.914977
v 1.031208 0.000000 0.897125
v 1.031208 0.054943 1.066223
v 0.206250 -1.701801 0.000000
v 0.206250 -1.701801 -0.059834
v 0.206250 -1.631461 -0.156649
v 0.206250 -1.517649 -0.193629
v 0.206250 -1.403837 -0.156649
v 0.823164 0.000000 -1.084075
v 0.206250 -0.054943 -0.914977
v 0.206250 0.000000 -0.897125
v 0.206250 -0.088901 -0.961714
v 0.206250 -0.088901 -1.019486
v 0.206250 -0.054943 -1.066223
v 0.206250 0.000000 -1.084075
v 0.206250 0.088901 -1.019486
v 0.206250 0.088901 -0.961714
v 0.206250 0.054943 -0.914977
v -0.000000 -0.054943 -0.914977
v -0.000000 0.000000 -0.897125
v -0.000000 -0.088901 -0.961714
v -0.000000 -0.088901 -1.019486
v -0.000000 0.088901 -1.019486
v -0.000000 0.054943 -0.914977
v 0.206250 -1.333497 0.000000
v 0.000000 -1.333497 0.000000
v 0.206250 -1.333497 -0.059834
v 0.000000 -1.333497 -0.059834
v 0.206250 0.054943 -1.066223
v -0.000000 0.054943 -1.066223
v -0.000000 -1.701801 0.000000
v -0.000000 -1.701801 -0.059834
v -0.000000 -1.631461 -0.156649
v -0.000000 -1.403837 -0.156649
v -0.000000 -0.054943 -1.066223
v -0.000000 0.088901 -0.961714
v -0.000000 -1.517649 -0.193629
v -0.000000 0.000000 -1.084075
v 0.412500 -1.631461 -0.156649
v 0.412500 -1.517649 -0.193629
v 0.412500 -1.701800 0.000000
v 0.412500 -1.403837 -0.156649
v 0.412500 -1.701801 -0.059834
v 0.412500 -1.701800 -0.029917
v 0.412500 -1.333497 -0.059834
v 0.412500 -1.333497 0.000000
v 0.618750 -1.403837 -0.156649
v 0.618750 -1.701800 0.000000
v 0.618750 -1.517649 -0.193629
v 0.618750 -1.631461 -0.156649
v 0.618750 -1.333497 0.000000
v 0.618750 -1.701801 -0.059834
v 0.618750 -1.701800 -0.014958
v 0.618750 -1.333497 -0.059834
v 0.412584 -0.088901 -0.961714
v 0.412584 0.054943 -0.914977
v 0.412584 0.088901 -0.961714
v 0.412584 -0.088901 -1.019486
v 0.412584 -0.054943 -0.914977
v 0.412584 -0.054943 -1.066223
v 0.412584 0.088901 -0.990600
v 0.411665 0.000000 -1.084075
v 0.412584 0.088901 -1.019486
v 0.412584 0.000000 -0.897125
v 0.412584 0.054943 -1.066223
v 0.618792 -0.088901 -0.961714
v 0.618792 0.088901 -1.019486
v 0.617414 0.000000 -1.084075
v 0.618792 0.088901 -1.005043
v 0.618792 -0.054943 -1.066223
v 0.618792 -0.054943 -0.914977
v 0.618792 -0.088901 -1.019486
v 0.618792 0.088901 -0.961714
v 0.618792 0.054943 -0.914977
v 0.618792 0.000000 -0.897125
v 0.618792 0.054943 -1.066223
v 0.825000 -1.701800 0.000000
v 0.825000 -1.333497 0.000000
v 0.825000 -1.701801 -0.059834
v 0.825000 -1.631461 -0.156649
v 0.825000 -1.517649 -0.193629
v 0.825000 -1.403837 -0.156649
v 0.825000 -1.333497 -0.059834
v 1.443750 -1.701801 0.000000
v 1.443750 -1.701801 -0.059834
v 1.443750 -1.631461 -0.156649
v 1.443750 -1.517649 -0.193629
v 1.443750 -1.403837 -0.156649
v 0.825000 0.000000 -0.897125
v 0.825000 -0.054943 -0.914977
v 0.825000 -0.088901 -0.961714
v 0.825000 -0.088901 -1.019486
v 0.826836 0.000000 -1.084075
v 0.825000 -0.054943 -1.066223
v 0.825000 0.054943 -1.066223
v 0.825000 0.088901 -1.019486
v 0.825000 0.088901 -0.961714
v 0.825000 0.054943 -0.914977
v 1.443750 -0.054943 -0.914977
v 1.443750 0.000000 -0.897125
v 1.443750 -0.088901 -0.961714
v 1.443750 -0.088901 -1.019486
v 1.443750 -0.054943 -1.066223
v 1.443750 0.000000 -1.084075
v 1.443750 0.088901 -1.019486
v 1.443750 0.088901 -0.961714
v 1.443750 0.054943 -0.914977
v 1.650000 -0.054943 -0.914977
v 1.650000 0.000000 -0.897125
v 1.650000 -0.088901 -0.961714
v 1.650000 -0.088901 -1.019486
v 1.650000 0.088901 -1.019486
v 1.650000 0.054943 -0.914977
v 1.443750 -1.333497 0.000000
v 1.650000 -1.333497 0.000000
v 1.443750 -1.333497 -0.059834
v 1.650000 -1.333497 -0.059834
v 1.443750 0.054943 -1.066223
v 1.650000 0.054943 -1.066223
v 1.650000 -1.701801 0.000000
v 1.650000 -1.701801 -0.059834
v 1.650000 -1.631461 -0.156649
v 1.650000 -1.403837 -0.156649
v 1.650000 -0.054943 -1.066223
v 1.650000 0.088901 -0.961714
v 1.650000 -1.517649 -0.193629
v 1.650000 0.000000 -1.084075
v 1.237500 -1.631461 -0.156649
v 1.237500 -1.517649 -0.193629
v 1.237500 -1.701800 0.000000
v 1.237500 -1.403837 -0.156649
v 1.237500 -1.701801 -0.059834
v 1.237500 -1.701800 -0.029917
v 1.237500 -1.333497 -0.059834
v 1.237500 -1.333497 0.000000
v 1.031250 -1.403837 -0.156649
v 1.031250 -1.701800 0.000000
v 1.031250 -1.517649 -0.193629
v 1.031250 -1.631461 -0.156649
v 1.031250 -1.333497 0.000000
v 1.031250 -1.701801 -0.059834
v 1.031250 -1.701800 -0.014958
v 1.031250 -1.333497 -0.059834
v 1.237417 -0.088901 -0.961714
v 1.237417 0.054943 -0.914977
v 1.237417 0.088901 -0.961714
v 1.237417 -0.088901 -1.019486
v 1.237417 -0.054943 -0.914977
v 1.237417 -0.054943 -1.066223
v 1.237417 0.088901 -0.990600
v 1.238335 0.000000 -1.084075
v 1.237417 0.088901 -1.019486
v 1.237417 0.000000 -0.897125
v 1.237417 0.054943 -1.066223
v 1.031208 -0.088901 -0.961714
v 1.031208 0.088901 -1.019486
v 1.032586 0.000000 -1.084075
v 1.031208 0.088901 -1.005043
v 1.031208 -0.054943 -1.066223
v 1.031208 -0.054943 -0.914977
v 1.031208 -0.088901 -1.019486
v 1.031208 0.088901 -0.961714
v 1.031208 0.054943 -0.914977
v 1.031208 0.000000 -0.897125
v 1.031208 0.054943 -1.066223
vn -0.0000 -1.0000 -0.0000
vn -0.0000 -0.0000 1.0000
vn -0.0000 -0.5878 0.8090
vn -0.0000 0.9511 0.3090
vn -0.0000 0.5878 0.8090
vn -0.0000 -0.9511 0.3090
vn -0.0000 1.0000 -0.0000
vn -0.0000 -0.9511 -0.3090
vn -0.0000 -0.5878 -0.8090
vn -0.0000 0.9511 -0.3090
vn -0.0000 0.5878 -0.8090
vn -0.0000 -0.0000 -1.0000
vn -1.0000 -0.0000 -0.0000
vn -0.0000 0.5905 0.8071
vn -0.0000 -0.5905 0.8071
vn 1.0000 -0.0000 -0.0000
vn -0.0000 -0.5905 -0.8071
vn -0.0000 0.5905 -0.8071
s 1
usemtl Track_Remap1_Edge
f 36//1 145//1 182//1
f 33//2 2//3 32//3
f 37//4 4//5 34//5
f 32//3 1//6 35//6
f 38//5 33//2 39//2
f 166//7 37//4 187//7
f 36//1 35//6 1//6
f 187//7 43//4 192//7
f 41//6 36//1 42//1
f 40//3 35//6 41//6
f 4//5 21//4 22//4
f 3//2 4//5 27//5
f 2//3 3//2 30//2
f 1//6 2//3 26//3
f 145//1 1//6 25//6
f 21//4 166//7 167//7
f 34//5 3//2 33//2
f 43//4 34//5 38//5
f 39//2 32//3 40//3
f 42//1 182//1 189//1
f 218//1 42//1 189//1
f 68//2 40//3 67//3
f 70//4 38//5 69//5
f 70//4 219//7 192//7
f 67//3 41//6 66//6
f 66//6 42//1 218//1
f 70//4 192//7 43//4
f 69//5 39//2 68//2
f 115//1 225//1 71//6
f 72//3 112//2 111//3
f 74//5 116//4 113//5
f 71//6 111//3 114//6
f 112//2 117//5 118//2
f 116//4 255//7 276//7
f 115//1 71//6 114//6
f 122//4 276//7 281//7
f 115//1 120//6 121//1
f 114//6 119//3 120//6
f 74//5 101//4 100//4
f 73//2 106//5 74//5
f 72//3 109//2 73//2
f 71//6 105//3 72//3
f 225//1 104//6 71//6
f 100//4 256//7 255//7
f 73//2 113//5 112//2
f 113//5 122//4 117//5
f 111//3 118//2 119//3
f 121//1 271//1 115//1
f 218//1 278//1 121//1
f 119//3 68//2 67//3
f 117//5 70//4 69//5
f 70//4 281//7 219//7
f 120//6 67//3 66//6
f 121//1 66//6 218//1
f 70//4 122//4 281//7
f 118//2 69//5 68//2
f 185//1 145//1 146//8
f 147//9 181//12 180//9
f 149//11 186//10 183//11
f 146//8 180//9 184//8
f 181//12 188//11 190//12
f 186//10 166//7 187//7
f 185//1 146//8 184//8
f 195//10 187//7 192//7
f 185//1 193//8 194//1
f 184//8 191//9 193//8
f 149//11 169//10 168//10
f 148//12 175//11 149//11
f 147//9 178//12 148//12
f 146//8 174//9 147//9
f 145//1 173//8 146//8
f 168//10 167//7 166//7
f 148//12 183//11 181//12
f 183//11 195//10 188//11
f 180//9 190//12 191//9
f 194//1 182//1 185//1
f 218//1 189//1 194//1
f 191//9 222//12 221//9
f 188//11 224//10 223//11
f 224//10 192//7 219//7
f 193//8 221//9 220//8
f 194//1 220//8 218//1
f 224//10 195//10 192//7
f 190//12 223//11 222//12
f 274//1 225//1 271//1
f 270//12 227//9 269//9
f 275//10 229//11 272//11
f 269//9 226//8 273//8
f 277//11 270//12 279//12
f 255//7 275//10 276//7
f 274//1 273//8 226//8
f 276//7 284//10 281//7
f 282//8 274//1 283//1
f 280//9 273//8 282//8
f 229//11 257//10 258//10
f 228//12 229//11 264//11
f 227//9 228//12 267//12
f 226//8 227//9 263//9
f 225//1 226//8 262//8
f 257//10 255//7 256//7
f 272//11 228//12 270//12
f 284//10 272//11 277//11
f 279//12 269//9 280//9
f 283//1 271//1 278//1
f 218//1 283//1 278//1
f 222//12 280//9 221//9
f 224//10 277//11 223//11
f 224//10 219//7 281//7
f 221//9 282//8 220//8
f 220//8 283//1 218//1
f 224//10 281//7 284//10
f 223//11 279//12 222//12
f 36//1 1//6 145//1
f 33//2 3//2 2//3
f 37//4 21//4 4//5
f 32//3 2//3 1//6
f 38//5 34//5 33//2
f 166//7 21//4 37//4
f 187//7 37//4 43//4
f 41//6 35//6 36//1
f 40//3 32//3 35//6
f 34//5 4//5 3//2
f 43//4 37//4 34//5
f 39//2 33//2 32//3
f 42//1 36//1 182//1
f 68//2 39//2 40//3
f 70//4 43//4 38//5
f 67//3 40//3 41//6
f 66//6 41//6 42//1
f 69//5 38//5 39//2
f 115//1 271//1 225//1
f 72//3 73//2 112//2
f 74//5 100//4 116//4
f 71//6 72//3 111//3
f 112//2 113//5 117//5
f 116//4 100//4 255//7
f 122//4 116//4 276//7
f 115//1 114//6 120//6
f 114//6 111//3 119//3
f 73//2 74//5 113//5
f 113//5 116//4 122//4
f 111//3 112//2 118//2
f 121//1 278//1 271//1
f 119//3 118//2 68//2
f 117//5 122//4 70//4
f 120//6 119//3 67//3
f 121//1 120//6 66//6
f 118//2 117//5 69//5
f 185//1 182//1 145//1
f 147//9 148//12 181//12
f 149//11 168//10 186//10
f 146//8 147//9 180//9
f 181//12 183//11 188//11
f 186//10 168//10 166//7
f 195//10 186//10 187//7
f 185//1 184//8 193//8
f 184//8 180//9 191//9
f 148//12 149//11 183//11
f 183//11 186//10 195//10
f 180//9 181//12 190//12
f 194//1 189//1 182//1
f 191//9 190//12 222//12
f 188//11 195//10 224//10
f 193//8 191//9 221//9
f 194//1 193//8 220//8
f 190//12 188//11 223//11
f 274//1 226//8 225//1
f 270//12 228//12 227//9
f 275//10 257//10 229//11
f 269//9 227//9 226//8
f 277//11 272//11 270//12
f 255//7 257//10 275//10
f 276//7 275//10 284//10
f 282//8 273//8 274//1
f 280//9 269//9 273//8
f 272//11 229//11 228//12
f 284//10 275//10 272//11
f 279//12 270//12 269//9
f 283//1 274//1 271//1
f 222//12 279//12 280//9
f 224//10 284//10 277//11
f 221//9 280//9 282//8
f 220//8 282//8 283//1
f 223//11 277//11 279//12
usemtl Track_Remap2_Edge
f 44//8 6//9 48//9
f 52//4 23//5 54//5
f 59//3 47//6 61//6
f 46//10 14//11 13//10
f 53//12 14//11 45//11
f 47//6 8//8 44//8
f 5//2 65//5 57//2
f 50//7 12//4 52//4
f 59//3 5//2 57//2
f 48//9 7//12 53//12
f 51//2 23//5 11//2
f 58//7 52//4 56//4
f 62//10 50//7 58//7
f 56//4 54//5 65//5
f 64//12 45//11 63//11
f 60//9 53//12 64//12
f 10//3 51//2 11//2
f 50//7 46//10 13//10
f 63//11 46//10 62//10
f 61//6 44//8 55//8
f 7//12 6//9 15//9
f 6//9 8//8 17//8
f 8//8 9//6 18//6
f 9//6 10//3 28//3
f 10//3 11//2 31//2
f 11//2 23//5 24//5
f 23//5 12//4 19//4
f 12//4 13//10 29//10
f 13//10 14//11 20//11
f 14//11 7//12 16//12
f 49//3 9//6 47//6
f 55//8 48//9 60//9
f 77//8 60//9 76//9
f 78//6 55//8 77//8
f 83//10 63//11 62//10
f 76//9 64//12 75//12
f 75//12 63//11 84//11
f 82//4 65//5 81//14
f 83//10 58//7 82//4
f 82//4 58//7 56//4
f 49//3 57//2 51//2
f 57//2 54//5 51//2
f 80//15 61//6 78//6
f 85//9 123//8 127//9
f 102//5 131//4 133//5
f 126//6 138//3 140//6
f 125//10 93//11 124//11
f 93//11 132//12 124//11
f 87//8 126//6 123//8
f 144//5 79//2 136//2
f 129//7 91//4 92//10
f 138//3 79//2 80//15
f 86//12 127//9 132//12
f 102//5 130//2 90//2
f 137//7 131//4 129//7
f 129//7 141//10 137//7
f 133//5 135//4 144//5
f 124//11 143//12 142//11
f 132//12 139//9 143//12
f 89//3 130//2 128//3
f 129//7 92//10 125//10
f 125//10 142//11 141//10
f 123//8 140//6 134//8
f 86//12 94//9 85//9
f 85//9 96//8 87//8
f 87//8 97//6 88//6
f 88//6 107//3 89//3
f 89//3 110//2 90//2
f 90//2 103//5 102//5
f 102//5 98//4 91//4
f 91//4 108//10 92//10
f 92//10 99//11 93//11
f 93//11 95//12 86//12
f 88//6 128//3 126//6
f 127//9 134//8 139//9
f 139//9 77//8 76//9
f 134//8 78//6 77//8
f 83//10 142//11 84//11
f 143//12 76//9 75//12
f 142//11 75//12 84//11
f 144//5 82//4 81//14
f 137//7 83//10 82//4
f 82//4 135//4 137//7
f 128//3 136//2 138//3
f 133//5 136//2 130//2
f 140//6 80//15 78//6
f 151//3 196//6 200//3
f 170//11 204//10 206//11
f 199//8 211//9 213//8
f 198//4 159//5 197//5
f 159//5 205//2 197//5
f 153//6 199//8 196//6
f 217//11 150//12 209//12
f 202//7 157//10 158//4
f 211//9 150//12 235//17
f 152//2 200//3 205//2
f 170//11 203//12 156//12
f 210//7 204//10 202//7
f 202//7 214//4 210//7
f 206//11 208//10 217//11
f 197//5 216//2 215//5
f 205//2 212//3 216//2
f 155//9 203//12 201//9
f 202//7 158//4 198//4
f 198//4 215//5 214//4
f 196//6 213//8 207//6
f 152//2 160//3 151//3
f 151//3 162//6 153//6
f 153//6 163//8 154//8
f 154//8 176//9 155//9
f 155//9 179//12 156//12
f 156//12 171//11 170//11
f 170//11 164//10 157//10
f 157//10 177//4 158//4
f 158//4 165//5 159//5
f 159//5 161//2 152//2
f 154//8 201//9 199//8
f 200//3 207//6 212//3
f 212//3 232//6 231//3
f 207//6 233//8 232//6
f 238//4 215//5 239//5
f 216//2 231//3 230//2
f 215//5 230//2 239//5
f 217//11 237//10 236//18
f 210//7 238//4 237//10
f 237//10 208//10 210//7
f 201//9 209//12 211//9
f 206//11 209//12 203//12
f 213//8 235//17 233//8
f 285//6 240//3 289//3
f 293//10 259//11 295//11
f 300//9 288//8 302//8
f 287//4 248//5 247//4
f 294//2 248//5 286//5
f 288//8 242//6 285//6
f 234//12 306//11 298//12
f 291//7 246//10 293//10
f 300//9 234//12 298//12
f 289//3 241//2 294//2
f 292//12 259//11 245//12
f 299//7 293//10 297//10
f 303//4 291//7 299//7
f 297//10 295//11 306//11
f 305//2 286//5 304//5
f 301//3 294//2 305//2
f 244//9 292//12 245//12
f 291//7 287//4 247//4
f 304//5 287//4 303//4
f 302//8 285//6 296//6
f 241//2 240//3 249//3
f 240//3 242//6 251//6
f 242//6 243//8 252//8
f 243//8 244//9 265//9
f 244//9 245//12 268//12
f 245//12 259//11 260//11
f 259//11 246//10 253//10
f 246//10 247//4 266//4
f 247//4 248//5 254//5
f 248//5 241//2 250//2
f 290//9 243//8 288//8
f 296//6 289//3 301//3
f 232//6 301//3 231//3
f 233//8 296//6 232//6
f 238//4 304//5 303//4
f 231//3 305//2 230//2
f 230//2 304//5 239//5
f 237//10 306//11 236//18
f 238//4 299//7 237//10
f 237//10 299//7 297//10
f 290//9 298//12 292//12
f 298//12 295//11 292//12
f 235//17 302//8 233//8
f 44//8 8//8 6//9
f 52//4 12//4 23//5
f 59//3 49//3 47//6
f 46//10 45//11 14//11
f 53//12 7//12 14//11
f 47//6 9//6 8//8
f 5//2 81//14 65//5
f 50//7 13//10 12//4
f 59//3 80//15 5//2
f 48//9 6//9 7//12
f 51//2 54//5 23//5
f 58//7 50//7 52//4
f 62//10 46//10 50//7
f 56//4 52//4 54//5
f 64//12 53//12 45//11
f 60//9 48//9 53//12
f 10//3 49//3 51//2
f 63//11 45//11 46//10
f 61//6 47//6 44//8
f 49//3 10//3 9//6
f 55//8 44//8 48//9
f 77//8 55//8 60//9
f 78//6 61//6 55//8
f 83//10 84//11 63//11
f 76//9 60//9 64//12
f 75//12 64//12 63//11
f 82//4 56//4 65//5
f 83//10 62//10 58//7
f 49//3 59//3 57//2
f 57//2 65//5 54//5
f 80//15 59//3 61//6
f 85//9 87//8 123//8
f 102//5 91//4 131//4
f 126//6 128//3 138//3
f 125//10 92//10 93//11
f 93//11 86//12 132//12
f 87//8 88//6 126//6
f 144//5 81//14 79//2
f 129//7 131//4 91//4
f 138//3 136//2 79//2
f 86//12 85//9 127//9
f 102//5 133//5 130//2
f 137//7 135//4 131//4
f 129//7 125//10 141//10
f 133//5 131//4 135//4
f 124//11 132//12 143//12
f 132//12 127//9 139//9
f 89//3 90//2 130//2
f 125//10 124//11 142//11
f 123//8 126//6 140//6
f 88//6 89//3 128//3
f 127//9 123//8 134//8
f 139//9 134//8 77//8
f 134//8 140//6 78//6
f 83//10 141//10 142//11
f 143//12 139//9 76//9
f 142//11 143//12 75//12
f 144//5 135//4 82//4
f 137//7 141//10 83//10
f 128//3 130//2 136//2
f 133//5 144//5 136//2
f 140//6 138//3 80//15
f 151//3 153//6 196//6
f 170//11 157//10 204//10
f 199//8 201//9 211//9
f 198//4 158//4 159//5
f 159//5 152//2 205//2
f 153//6 154//8 199//8
f 217//11 236//18 150//12
f 202//7 204//10 157//10
f 211//9 209//12 150//12
f 152//2 151//3 200//3
f 170//11 206//11 203//12
f 210//7 208//10 204//10
f 202//7 198//4 214//4
f 206//11 204//10 208//10
f 197//5 205//2 216//2
f 205//2 200//3 212//3
f 155//9 156//12 203//12
f 198//4 197//5 215//5
f 196//6 199//8 213//8
f 154//8 155//9 201//9
f 200//3 196//6 207//6
f 212//3 207//6 232//6
f 207//6 213//8 233//8
f 238//4 214//4 215//5
f 216//2 212//3 231//3
f 215//5 216//2 230//2
f 217//11 208//10 237//10
f 210//7 214//4 238//4
f 201//9 203//12 209//12
f 206//11 217//11 209//12
f 213//8 211//9 235//17
f 285//6 242//6 240//3
f 293//10 246//10 259//11
f 300//9 290//9 288//8
f 287//4 286//5 248//5
f 294//2 241//2 248//5
f 288//8 243//8 242//6
f 234//12 236//18 306//11
f 291//7 247//4 246//10
f 300//9 235//17 234//12
f 289//3 240//3 241//2
f 292//12 295//11 259//11
f 299//7 291//7 293//10
f 303//4 287//4 291//7
f 297//10 293//10 295//11
f 305//2 294//2 286//5
f 301//3 289//3 294//2
f 244//9 290//9 292//12
f 304//5 286//5 287//4
f 302//8 288//8 285//6
f 290//9 244//9 243//8
f 296//6 285//6 289//3
f 232//6 296//6 301//3
f 233//8 302//8 296//6
f 238//4 239//5 304//5
f 231//3 301//3 305//2
f 230//2 305//2 304//5
f 237//10 297//10 306//11
f 238//4 303//4 299//7
f 290//9 300//9 298//12
f 298//12 306//11 295//11
f 235//17 300//9 302//8
usemtl Track_Remap2_NoAO_NoBleed
f 24//13 28//13 31//13
f 29//13 18//13 19//13
f 17//13 20//13 15//13
f 15//13 20//13 16//13
f 24//13 18//13 28//13
f 29//13 17//13 18//13
f 17//13 29//13 20//13
f 24//13 19//13 18//13
f 103//16 110//16 107//16
f 108//16 98//16 97//16
f 96//16 94//16 99//16
f 94//16 95//16 99//16
f 103//16 107//16 97//16
f 108//16 97//16 96//16
f 96//16 99//16 108//16
f 103//16 97//16 98//16
f 171//13 179//13 176//13
f 177//13 164//13 163//13
f 162//13 160//13 165//13
f 160//13 161//13 165//13
f 171//13 176//13 163//13
f 177//13 163//13 162//13
f 162//13 165//13 177//13
f 171//13 163//13 164//13
f 260//16 265//16 268//16
f 266//16 252//16 253//16
f 251//16 254//16 249//16
f 249//16 254//16 250//16
f 260//16 252//16 265//16
f 266//16 251//16 252//16
f 251//16 266//16 254//16
f 260//16 253//16 252//16
usemtl Track_Remap1_NoAO_NoBleed
f 22//13 26//13 27//13
f 25//13 167//13 172//13
f 30//13 27//13 26//13
f 22//13 25//13 26//13
f 25//13 22//13 167//13
f 101//16 106//16 105//16
f 104//16 261//16 256//16
f 109//16 105//16 106//16
f 101//16 105//16 104//16
f 104//16 256//16 101//16
f 169//13 175//13 174//13
f 173//13 172//13 167//13
f 178//13 174//13 175//13
f 169//13 174//13 173//13
f 173//13 167//13 169//13
f 258//16 263//16 264//16
f 262//16 256//16 261//16
f 267//16 264//16 263//16
f 258//16 262//16 263//16
f 262//16 258//16 256//16
usemtl Track_Remap1
f 4//5 22//4 27//5
f 3//2 27//5 30//2
f 2//3 30//2 26//3
f 1//6 26//3 25//6
f 145//1 25//6 172//1
f 21//4 167//7 22//4
f 74//5 106//5 101//4
f 73//2 109//2 106//5
f 72//3 105//3 109//2
f 71//6 104//6 105//3
f 225//1 261//1 104//6
f 100//4 101//4 256//7
f 149//11 175//11 169//10
f 148//12 178//12 175//11
f 147//9 174//9 178//12
f 146//8 173//8 174//9
f 145//1 172//1 173//8
f 168//10 169//10 167//7
f 229//11 258//10 264//11
f 228//12 264//11 267//12
f 227//9 267//12 263//9
f 226//8 263//9 262//8
f 225//1 262//8 261//1
f 257//10 256//7 258//10
usemtl Track_Remap2
f 7//12 15//9 16//12
f 6//9 17//8 15//9
f 8//8 18//6 17//8
f 9//6 28//3 18//6
f 10//3 31//2 28//3
f 11//2 24//5 31//2
f 23//5 19//4 24//5
f 12//4 29//10 19//4
f 13//10 20//11 29//10
f 14//11 16//12 20//11
f 86//12 95//12 94//9
f 85//9 94//9 96//8
f 87//8 96//8 97//6
f 88//6 97//6 107//3
f 89//3 107//3 110//2
f 90//2 110//2 103//5
f 102//5 103//5 98//4
f 91//4 98//4 108//10
f 92//10 108//10 99//11
f 93//11 99//11 95//12
f 152//2 161//2 160//3
f 151//3 160//3 162//6
f 153//6 162//6 163//8
f 154//8 163//8 176//9
f 155//9 176//9 179//12
f 156//12 179//12 171//11
f 170//11 171//11 164//10
f 157//10 164//10 177//4
f 158//4 177//4 165//5
f 159//5 165//5 161//2
f 241//2 249//3 250//2
f 240//3 251//6 249//3
f 242//6 252//8 251//6
f 243//8 265//9 252//8
f 244//9 268//12 265//9
f 245//12 260//11 268//12
f 259//11 253//10 260//11
f 246//10 266//4 253//10
f 247//4 254//5 266//4
f 248//5 250//2 254//5
