# Blender v3.5.0 OBJ File: 'mini.blend'
# www.blender.org
mtllib materials.mtl
o mini.002
v 0.000000 0.081671 -0.380329
v 0.684749 0.106708 -0.417800
v 0.684749 0.081671 -0.380329
v 0.000000 0.106708 -0.417800
v 0.000000 -0.106708 -0.417800
v 0.684749 -0.081671 -0.380329
v 0.684749 -0.106708 -0.417800
v 0.000000 -0.081671 -0.380329
v 0.000000 -0.115500 -0.462000
v 0.684749 -0.115500 -0.462000
v 0.666469 -0.064787 -0.369047
v 0.635143 -0.070125 -0.372614
v 0.684749 -0.051524 -0.360185
v 0.561299 -0.049586 -0.358890
v 0.598212 -0.064787 -0.369047
v 0.000000 -0.044200 -0.355291
v 0.000000 -0.081671 -0.543670
v 0.684749 -0.106708 -0.506199
v 0.684749 -0.081671 -0.543670
v 0.000000 -0.106708 -0.506199
v 0.000000 -0.044200 -0.568708
v 0.684749 0.000000 -0.577500
v 0.000000 0.000000 -0.577500
v 0.684749 -0.044200 -0.568708
v 0.525443 0.000000 -0.346500
v 0.536426 -0.026836 -0.351838
v 0.000000 0.000000 -0.346500
v 0.635143 0.070125 -0.372614
v 0.666469 0.064787 -0.369047
v 0.684749 0.051524 -0.360185
v 0.598212 0.064787 -0.369047
v 0.561299 0.049586 -0.358890
v 0.000000 0.044200 -0.355291
v 0.000000 0.106708 -0.506199
v 0.684749 0.081671 -0.543670
v 0.684749 0.106708 -0.506199
v 0.000000 0.081671 -0.543670
v 0.684749 0.044200 -0.568708
v 0.000000 0.044200 -0.568708
v 0.684750 0.115500 -0.462000
v 0.000000 0.115500 -0.462000
v 0.536426 0.026836 -0.351838
v 0.000000 -0.106708 0.506200
v 0.684749 -0.081671 0.543671
v 0.684749 -0.106708 0.506200
v 0.000000 -0.081671 0.543671
v 0.000000 -0.115500 0.462000
v 0.684749 -0.115500 0.462000
v 0.000000 -0.044200 0.568709
v 0.684749 -0.044200 0.568709
v 0.000000 0.115500 0.462000
v 0.684749 0.106708 0.417801
v 0.684750 0.115500 0.462000
v 0.000000 0.106708 0.417801
v 0.018281 -0.064787 0.369048
v 0.000000 -0.081671 0.380330
v 0.049606 -0.070125 0.372615
v 0.000000 -0.051524 0.360186
v 0.684749 -0.081671 0.380330
v 0.123450 -0.049586 0.358891
v 0.086537 -0.064787 0.369048
v 0.684749 -0.044200 0.355292
v 0.000000 0.081671 0.543671
v 0.684749 0.106708 0.506200
v 0.684749 0.081671 0.543671
v 0.000000 0.106708 0.506200
v 0.684749 -0.106708 0.417801
v 0.000000 -0.106708 0.417801
v 0.148324 0.026836 0.351839
v 0.684749 0.044200 0.355292
v 0.123450 0.049586 0.358891
v 0.159306 0.000000 0.346501
v 0.684749 0.000000 0.346501
v 0.684749 0.000000 0.577501
v 0.000000 0.044200 0.568709
v 0.684749 0.044200 0.568709
v 0.000000 0.000000 0.577501
v 0.684749 0.081671 0.380330
v 0.000000 0.081671 0.380330
v 0.148324 -0.026836 0.351839
v 0.049606 0.070125 0.372615
v 0.018281 0.064787 0.369048
v 0.000000 0.051524 0.360186
v 0.086537 0.064787 0.369048
v 0.684749 0.026836 -0.330886
v 0.684749 0.000000 -0.322246
v 0.684749 -0.026836 -0.330886
v 0.000000 0.000000 0.322247
v 0.684749 -0.049586 -0.355490
v 0.000000 0.049586 0.355491
v 0.000000 -0.049586 0.355491
v 0.000000 0.026836 0.330887
v 0.000000 -0.026836 0.330887
v 0.684749 0.049586 -0.355490
vn 0.7070 0.4376 0.5555
vn 0.7863 -0.0000 0.6178
vn 0.7110 0.4271 0.5586
vn 0.7110 -0.4271 0.5586
vn 0.7070 -0.4376 0.5555
vn 0.0689 0.9962 0.0541
vn -0.3381 0.9028 -0.2656
vn -0.0689 0.9962 -0.0541
vn -0.7863 -0.0000 -0.6178
vn -0.7070 -0.4376 -0.5555
vn -0.2240 0.9586 -0.1760
vn 0.5069 -0.7645 0.3982
vn -0.5043 0.7672 -0.3963
vn -0.5069 0.7645 -0.3982
vn 0.3381 -0.9028 0.2656
vn 0.5043 -0.7672 0.3963
vn 0.2240 -0.9586 0.1760
vn -0.5069 -0.7645 -0.3982
vn -0.5043 -0.7672 -0.3963
vn -0.7110 0.4271 -0.5586
vn -0.7070 0.4376 -0.5555
vn 0.3381 0.9028 0.2656
vn 0.2240 0.9586 0.1760
vn -0.7110 -0.4271 -0.5586
vn -0.0689 -0.9962 -0.0541
vn 0.0689 -0.9962 0.0541
vn -0.2240 -0.9586 -0.1760
vn -0.3381 -0.9028 -0.2656
vn 0.5043 0.7672 0.3963
vn 0.5069 0.7645 0.3982
vn 1.0000 0.0000 0.0000
vn -1.0000 0.0000 0.0000
vn 0.0000 0.7071 0.7071
vn 0.0000 0.9239 0.3827
vn 0.0000 -0.9239 0.3827
vn 0.0000 -0.7071 0.7071
vn 0.0000 -1.0000 0.0000
vn -0.0000 -0.5556 0.8315
vn 0.0000 -0.5555 0.8315
vn 0.0007 -0.5018 0.8650
vn 0.0000 -0.3827 0.9239
vn 0.0000 -0.7071 -0.7071
vn 0.0000 -0.9239 -0.3827
vn 0.0000 -0.3827 -0.9239
vn 0.0000 0.0000 -1.0000
vn 0.0022 -0.2596 0.9657
vn 0.0000 0.0000 1.0000
vn 0.0000 0.5555 0.8315
vn -0.0000 0.5556 0.8315
vn 0.0007 0.5018 0.8650
vn 0.0000 0.3827 0.9239
vn 0.0000 0.9239 -0.3827
vn 0.0000 0.7071 -0.7071
vn 0.0000 0.3827 -0.9239
vn 0.0000 1.0000 0.0000
vn 0.0022 0.2596 0.9657
vn 0.0000 -0.5556 -0.8315
vn -0.0000 -0.5555 -0.8315
vn -0.0007 -0.5018 -0.8650
vn -0.0022 0.2596 -0.9657
vn -0.0007 0.5018 -0.8650
vn -0.0022 -0.2596 -0.9657
vn -0.0000 0.5555 -0.8315
vn 0.0000 0.5556 -0.8315
vn -0.4369 0.8315 -0.3432
vn 0.4369 -0.8315 0.3432
vn -0.4369 -0.8315 -0.3432
vn 0.4369 0.8315 0.3432
usemtl Track_Remap1
s 1
f 69//1 72//2 85//3
f 86//2 85//3 72//2
f 87//4 72//2 80//5
f 28//6 82//7 81//8
f 88//9 25//9 26//10
f 82//7 28//6 31//11
f 80//5 89//12 87//4
f 82//7 31//11 32//13
f 82//7 32//13 90//14
f 72//2 87//4 86//2
f 11//15 89//12 60//16
f 60//16 61//17 11//15
f 91//18 26//10 14//19
f 92//20 90//14 42//21
f 88//9 92//20 42//21
f 42//21 25//9 88//9
f 29//22 81//8 84//23
f 81//8 29//22 28//6
f 89//12 80//5 60//16
f 26//10 93//24 88//9
f 61//17 57//25 11//15
f 12//26 11//15 57//25
f 14//19 15//27 55//28
f 91//18 14//19 55//28
f 32//13 42//21 90//14
f 26//10 91//18 93//24
f 57//25 55//28 12//26
f 71//29 69//1 94//30
f 71//29 94//30 29//22
f 29//22 84//23 71//29
f 15//27 12//26 55//28
f 85//3 94//30 69//1
f 85//31 86//31 87//31
f 85//31 87//31 94//31
f 89//31 94//31 87//31
f 94//31 89//31 30//31
f 13//31 30//31 89//31
f 58//32 83//32 91//32
f 90//32 91//32 83//32
f 93//32 91//32 90//32
f 93//32 90//32 92//32
f 88//32 93//32 92//32
usemtl Track_Remap2
f 1//33 3//33 2//34
f 2//34 4//34 1//33
f 5//35 7//35 6//36
f 6//36 8//36 5//35
f 9//37 10//37 7//35
f 7//35 5//35 9//37
f 11//38 12//39 6//36
f 6//36 13//38 11//38
f 8//36 15//38 14//40
f 6//36 12//39 15//38
f 15//38 8//36 6//36
f 14//40 16//41 8//36
f 17//42 19//42 18//43
f 18//43 20//43 17//42
f 21//44 23//45 22//45
f 22//45 24//44 21//44
f 16//41 26//46 25//47
f 16//41 14//40 26//46
f 25//47 27//47 16//41
f 20//43 18//43 10//37
f 10//37 9//37 20//43
f 3//33 28//48 29//49
f 29//49 30//49 3//33
f 31//49 28//48 3//33
f 3//33 1//33 31//49
f 32//50 31//49 1//33
f 1//33 33//51 32//50
f 34//52 36//52 35//53
f 35//53 37//53 34//52
f 23//45 39//54 38//54
f 38//54 22//45 23//45
f 4//34 2//34 40//55
f 40//55 41//55 4//34
f 17//42 21//44 24//44
f 24//44 19//42 17//42
f 42//56 32//50 33//51
f 25//47 42//56 33//51
f 33//51 27//47 25//47
f 41//55 40//55 36//52
f 36//52 34//52 41//55
f 39//54 37//53 35//53
f 35//53 38//54 39//54
f 43//35 45//35 44//36
f 44//36 46//36 43//35
f 47//37 48//37 45//35
f 45//35 43//35 47//37
f 44//36 50//41 49//41
f 49//41 46//36 44//36
f 51//55 53//55 52//52
f 52//52 54//52 51//55
f 55//57 57//58 56//42
f 56//42 58//57 55//57
f 59//42 61//57 60//59
f 56//42 57//58 61//57
f 61//57 59//42 56//42
f 60//59 62//44 59//42
f 63//33 65//33 64//34
f 64//34 66//34 63//33
f 56//42 59//42 67//43
f 67//43 68//43 56//42
f 69//60 71//61 70//54
f 72//45 69//60 70//54
f 70//54 73//45 72//45
f 74//47 76//51 75//51
f 75//51 77//47 74//47
f 68//43 67//43 48//37
f 48//37 47//37 68//43
f 54//52 52//52 78//53
f 78//53 79//53 54//52
f 62//44 80//62 72//45
f 62//44 60//59 80//62
f 72//45 73//45 62//44
f 66//34 64//34 53//55
f 53//55 51//55 66//34
f 50//41 74//47 77//47
f 77//47 49//41 50//41
f 76//51 65//33 63//33
f 63//33 75//51 76//51
f 79//53 81//63 82//64
f 82//64 83//64 79//53
f 84//64 81//63 79//53
f 79//53 78//53 84//64
f 71//61 84//64 78//53
f 78//53 70//54 71//61
f 90//14 83//65 82//7
f 11//15 13//66 89//12
f 55//28 58//67 91//18
f 94//30 30//68 29//22
f 2//31 3//31 30//31
f 40//31 2//31 30//31
f 36//31 40//31 30//31
f 13//31 6//31 7//31
f 30//31 13//31 36//31
f 13//31 7//31 10//31
f 18//31 36//31 13//31
f 13//31 10//31 18//31
f 35//31 36//31 18//31
f 35//31 18//31 19//31
f 38//31 35//31 19//31
f 38//31 19//31 24//31
f 24//31 22//31 38//31
f 76//31 74//31 50//31
f 65//31 76//31 50//31
f 65//31 50//31 44//31
f 64//31 65//31 44//31
f 64//31 44//31 45//31
f 53//31 64//31 45//31
f 53//31 45//31 48//31
f 52//31 53//31 48//31
f 52//31 48//31 67//31
f 78//31 52//31 67//31
f 78//31 67//31 59//31
f 70//31 78//31 59//31
f 70//31 59//31 62//31
f 62//31 73//31 70//31
f 49//32 77//32 75//32
f 46//32 49//32 75//32
f 46//32 75//32 63//32
f 43//32 46//32 63//32
f 43//32 63//32 66//32
f 58//32 47//32 43//32
f 43//32 66//32 58//32
f 58//32 68//32 47//32
f 83//32 58//32 66//32
f 58//32 56//32 68//32
f 66//32 51//32 83//32
f 51//32 54//32 83//32
f 54//32 79//32 83//32
f 16//32 27//32 33//32
f 8//32 16//32 33//32
f 8//32 33//32 1//32
f 5//32 8//32 1//32
f 5//32 1//32 4//32
f 9//32 5//32 4//32
f 9//32 4//32 41//32
f 20//32 9//32 41//32
f 20//32 41//32 34//32
f 17//32 20//32 34//32
f 17//32 34//32 37//32
f 21//32 17//32 37//32
f 21//32 37//32 39//32
f 39//32 23//32 21//32
