# Blender v2.79 (sub 7) OBJ File: 'hydraulic_launched.blend'
# www.blender.org
mtllib materials.mtl
v 1.650000 0.100000 1.000000
v 1.650000 1.750000 1.000000
v -0.000000 0.100000 1.000000
v -0.000000 1.750000 1.000000
v 1.650000 0.100000 -1.000000
v 1.650000 1.750000 -1.000000
v -0.000000 0.100000 -1.000000
v -0.000000 1.750000 -1.000000
v 0.183333 0.100000 1.000000
v 0.366667 0.100000 1.000000
v 0.550000 0.100000 1.000000
v 0.733333 0.100000 1.000000
v 0.916667 0.100000 1.000000
v 1.100000 0.100000 1.000000
v 1.283333 0.100000 1.000000
v 1.466667 0.100000 1.000000
v 1.466667 1.750000 1.000000
v 1.283333 1.750000 1.000000
v 1.100000 1.750000 1.000000
v 0.916667 1.750000 1.000000
v 0.733333 1.750000 1.000000
v 0.550000 1.750000 1.000000
v 0.366667 1.750000 1.000000
v 0.183333 1.750000 1.000000
v 1.466667 0.100000 -1.000000
v 1.283333 0.100000 -1.000000
v 1.100000 0.100000 -1.000000
v 0.916667 0.100000 -1.000000
v 0.733333 0.100000 -1.000000
v 0.550000 0.100000 -1.000000
v 0.366667 0.100000 -1.000000
v 0.183333 0.100000 -1.000000
v 0.183333 1.750000 -1.000000
v 0.366667 1.750000 -1.000000
v 0.550000 1.750000 -1.000000
v 0.733333 1.750000 -1.000000
v 0.916667 1.750000 -1.000000
v 1.100000 1.750000 -1.000000
v 1.283333 1.750000 -1.000000
v 1.466667 1.750000 -1.000000
vn 0.0000 0.0000 1.0000
vn -1.0000 0.0000 -0.0000
vn 0.0000 0.0000 -1.0000
vn 1.0000 0.0000 0.0000
vn 0.0000 -1.0000 0.0000
vn 0.0000 1.0000 0.0000
usemtl VisibleMask
s off
f 24//1 3//1 9//1
f 4//2 7//2 3//2
f 40//3 5//3 25//3
f 6//4 1//4 5//4
f 25//5 1//5 16//5
f 17//6 6//6 40//6
f 4//6 33//6 8//6
f 24//6 34//6 33//6
f 23//6 35//6 34//6
f 22//6 36//6 35//6
f 21//6 37//6 36//6
f 20//6 38//6 37//6
f 19//6 39//6 38//6
f 18//6 40//6 39//6
f 7//5 9//5 3//5
f 32//5 10//5 9//5
f 31//5 11//5 10//5
f 30//5 12//5 11//5
f 29//5 13//5 12//5
f 28//5 14//5 13//5
f 27//5 15//5 14//5
f 26//5 16//5 15//5
f 8//3 32//3 7//3
f 33//3 31//3 32//3
f 34//3 30//3 31//3
f 35//3 29//3 30//3
f 36//3 28//3 29//3
f 37//3 27//3 28//3
f 38//3 26//3 27//3
f 39//3 25//3 26//3
f 2//1 16//1 1//1
f 17//1 15//1 16//1
f 18//1 14//1 15//1
f 19//1 13//1 14//1
f 20//1 12//1 13//1
f 21//1 11//1 12//1
f 22//1 10//1 11//1
f 23//1 9//1 10//1
f 24//1 4//1 3//1
f 4//2 8//2 7//2
f 40//3 6//3 5//3
f 6//4 2//4 1//4
f 25//5 5//5 1//5
f 17//6 2//6 6//6
f 4//6 24//6 33//6
f 24//6 23//6 34//6
f 23//6 22//6 35//6
f 22//6 21//6 36//6
f 21//6 20//6 37//6
f 20//6 19//6 38//6
f 19//6 18//6 39//6
f 18//6 17//6 40//6
f 7//5 32//5 9//5
f 32//5 31//5 10//5
f 31//5 30//5 11//5
f 30//5 29//5 12//5
f 29//5 28//5 13//5
f 28//5 27//5 14//5
f 27//5 26//5 15//5
f 26//5 25//5 16//5
f 8//3 33//3 32//3
f 33//3 34//3 31//3
f 34//3 35//3 30//3
f 35//3 36//3 29//3
f 36//3 37//3 28//3
f 37//3 38//3 27//3
f 38//3 39//3 26//3
f 39//3 40//3 25//3
f 2//1 17//1 16//1
f 17//1 18//1 15//1
f 18//1 19//1 14//1
f 19//1 20//1 13//1
f 20//1 21//1 12//1
f 21//1 22//1 11//1
f 22//1 23//1 10//1
f 23//1 24//1 9//1
