# Blender 3.6.0
# www.blender.org
mtllib materials.mtl
o quad_tie.007
v -0.000000 0.000171 0.250000
v 0.140250 0.000000 0.250000
v 0.140250 0.050000 0.250000
v -0.000000 0.050000 0.250000
v 0.141156 -0.000685 0.000000
v 0.140250 0.050001 0.349999
v -0.000000 0.050001 0.350001
v 0.140250 0.100000 0.349999
v 0.140250 0.100000 0.250000
v -0.000000 0.100000 0.350001
v -0.000000 0.100000 0.250000
v 0.000906 0.049143 -0.000000
v 0.141156 0.049143 -0.000000
v 0.140250 0.000000 0.349999
v 0.000000 0.000171 0.349999
v -0.000000 0.000171 -0.000000
v 0.140250 0.000000 -0.000000
v 0.070125 0.070125 0.462000
v 0.043289 0.064787 0.462000
v 0.119711 0.049586 0.462000
v 0.134912 0.026836 0.462000
v 0.140250 0.000000 0.379500
v 0.140250 0.000000 0.462000
v 0.000000 0.000000 0.379500
v 0.005338 0.026836 0.462000
v 0.000000 0.000000 0.462000
v 0.096961 0.064787 0.462000
v 0.005338 -0.026836 0.462000
v 0.020539 -0.049586 0.429086
v 0.020539 -0.049586 0.462000
v 0.005338 -0.026836 0.406336
v 0.020539 -0.049586 0.329914
v 0.005338 -0.026836 0.352664
v 0.020539 0.049586 0.462000
v 0.134912 -0.026836 0.462000
v 0.119711 -0.049586 0.462000
v 0.043289 -0.064787 0.462000
v 0.096961 -0.064787 0.462000
v 0.070125 -0.070125 0.462000
v 0.119711 -0.049586 0.429086
v 0.134912 -0.026836 0.406336
v 0.119711 -0.049586 0.329914
v 0.134912 -0.026836 0.352664
v 0.070125 -0.070125 0.449625
v 0.096961 -0.064787 0.444287
v 0.070125 -0.070125 0.309375
v 0.096961 -0.064787 0.314713
v 0.043289 -0.064787 0.444287
v 0.043289 -0.064787 0.314713
v 0.043289 -1.054787 0.462000
v 0.070125 -1.060125 0.462000
v 0.140250 -0.990000 0.462000
v 0.134912 -0.963164 0.406336
v 0.134912 -0.963164 0.462000
v 0.140250 -0.990000 0.379500
v 0.134912 -0.963164 0.352664
v 0.119711 -0.940414 0.429086
v 0.119711 -0.940414 0.462000
v 0.119711 -0.940414 0.329914
v 0.134912 -1.016836 0.462000
v 0.119711 -1.039586 0.462000
v 0.096961 -1.054787 0.462000
v 0.020539 -0.940414 0.462000
v 0.043289 -0.925213 0.444287
v 0.020539 -0.940414 0.429086
v 0.043289 -0.925213 0.462000
v 0.043289 -0.925213 0.314713
v 0.020539 -0.940414 0.329914
v 0.000000 -0.990000 0.462000
v 0.005338 -0.963164 0.406336
v 0.000000 -0.990000 0.379500
v 0.005338 -0.963164 0.462000
v 0.005338 -0.963164 0.352664
v 0.070125 -0.919875 0.449625
v 0.096961 -0.925213 0.462000
v 0.096961 -0.925213 0.444287
v 0.070125 -0.919875 0.462000
v 0.096961 -0.925213 0.314713
v 0.070125 -0.919875 0.309375
v 0.020539 -1.039586 0.462000
v 0.005338 -1.016836 0.462000
v 0.043289 0.064787 0.300000
v 0.140250 0.000000 0.000000
v 0.020539 0.049586 0.300000
v 0.119711 0.049586 0.300000
v 0.000000 0.000000 0.000000
v 0.020539 -0.049586 0.000000
v 0.134912 -0.026836 0.000000
v 0.070125 0.070125 0.300000
v 0.134912 0.026836 0.300000
v 0.005338 0.026836 0.300000
v 0.005338 -0.026836 0.000000
v 0.119711 -0.049586 0.000000
v 0.096961 0.064787 0.300000
v 0.070125 -0.070125 0.000000
v 0.043289 -0.064787 0.000000
v 0.096961 -0.064787 0.000000
v 0.043289 -1.054787 0.000000
v 0.096961 -1.054787 0.000000
v 0.070125 -0.919875 0.000000
v 0.134912 -0.963164 0.000000
v 0.134912 -1.016836 0.000000
v 0.020539 -1.039586 0.000000
v 0.070125 -1.060125 0.000000
v 0.000000 -0.990000 0.000000
v 0.096961 -0.925213 0.000000
v 0.119711 -1.039586 0.000000
v 0.119711 -0.940414 0.000000
v 0.020539 -0.940414 0.000000
v 0.005338 -0.963164 0.000000
v 0.005338 -1.016836 0.000000
v 0.043289 -0.925213 0.000000
v 0.140250 -0.990000 0.000000
v 0.134912 0.026836 -0.000000
v 0.005338 0.026836 -0.000000
v -0.000000 0.000171 -0.250000
v 0.140250 0.000000 -0.250000
v 0.140250 0.050000 -0.250000
v -0.000000 0.050000 -0.250000
v 0.140250 0.050000 -0.349999
v -0.000000 0.050000 -0.350001
v 0.140250 0.100000 -0.349999
v 0.140250 0.100000 -0.250000
v -0.000000 0.100000 -0.350001
v -0.000000 0.100000 -0.250000
v 0.140250 0.000000 -0.349999
v 0.000000 0.000171 -0.349999
v 0.070125 0.070125 -0.462000
v 0.043289 0.064787 -0.462000
v 0.119711 0.049586 -0.462000
v 0.134912 0.026836 -0.462000
v 0.140250 -0.000000 -0.379500
v 0.140250 -0.000000 -0.462000
v 0.000000 -0.000000 -0.379500
v 0.005338 0.026836 -0.462000
v 0.000000 -0.000000 -0.462000
v 0.096961 0.064787 -0.462000
v 0.005338 -0.026836 -0.462000
v 0.020539 -0.049586 -0.429086
v 0.020539 -0.049586 -0.462000
v 0.005338 -0.026836 -0.406336
v 0.020539 -0.049586 -0.329914
v 0.005338 -0.026836 -0.352664
v 0.020539 0.049586 -0.462000
v 0.134912 -0.026836 -0.462000
v 0.119711 -0.049586 -0.462000
v 0.043289 -0.064787 -0.462000
v 0.096961 -0.064787 -0.462000
v 0.070125 -0.070125 -0.462000
v 0.119711 -0.049586 -0.429086
v 0.134912 -0.026836 -0.406336
v 0.119711 -0.049586 -0.329914
v 0.134912 -0.026836 -0.352664
v 0.070125 -0.070125 -0.449625
v 0.096961 -0.064787 -0.444287
v 0.070125 -0.070125 -0.309375
v 0.096961 -0.064787 -0.314713
v 0.043289 -0.064787 -0.444287
v 0.043289 -0.064787 -0.314713
v 0.043289 -1.054787 -0.462000
v 0.070125 -1.060125 -0.462000
v 0.140250 -0.990000 -0.462000
v 0.134912 -0.963164 -0.406336
v 0.134912 -0.963164 -0.462000
v 0.140250 -0.990000 -0.379500
v 0.134912 -0.963164 -0.352664
v 0.119711 -0.940414 -0.429086
v 0.119711 -0.940414 -0.462000
v 0.119711 -0.940414 -0.329914
v 0.134912 -1.016836 -0.462000
v 0.119711 -1.039586 -0.462000
v 0.096961 -1.054787 -0.462000
v 0.020539 -0.940414 -0.462000
v 0.043289 -0.925213 -0.444287
v 0.020539 -0.940414 -0.429086
v 0.043289 -0.925213 -0.462000
v 0.043289 -0.925213 -0.314713
v 0.020539 -0.940414 -0.329914
v 0.000000 -0.990000 -0.462000
v 0.005338 -0.963164 -0.406336
v 0.000000 -0.990000 -0.379500
v 0.005338 -0.963164 -0.462000
v 0.005338 -0.963164 -0.352664
v 0.070125 -0.919875 -0.449625
v 0.096961 -0.925213 -0.462000
v 0.096961 -0.925213 -0.444287
v 0.070125 -0.919875 -0.462000
v 0.096961 -0.925213 -0.314713
v 0.070125 -0.919875 -0.309375
v 0.020539 -1.039586 -0.462000
v 0.005338 -1.016836 -0.462000
v 0.043289 0.064787 -0.300000
v 0.020539 0.049586 -0.300000
v 0.119711 0.049586 -0.300000
v 0.070125 0.070125 -0.300000
v 0.134912 0.026836 -0.300000
v 0.005338 0.026836 -0.300000
v 0.096961 0.064787 -0.300000
vn -1.0000 -0.0000 -0.0012
vn -1.0000 -0.0000 -0.0000
vn -0.0000 1.0000 -0.0000
vn -0.0000 -0.0000 1.0000
vn 1.0000 -0.0000 -0.0000
vn 1.0000 -0.0008 0.0002
vn -0.0000 -0.0000 -1.0000
vn -0.0000 1.0000 -0.0034
vn 0.9999 -0.0161 0.0032
vn 0.9998 -0.0184 0.0037
vn -0.0012 -1.0000 -0.0000
vn 0.3827 0.9239 -0.0000
vn 0.7071 0.7071 -0.0000
vn 0.9979 0.0651 -0.0000
vn 0.9239 0.3827 -0.0000
vn -0.9239 0.3827 -0.0000
vn -0.9979 0.0651 -0.0000
vn -0.9239 -0.3827 -0.0000
vn -0.7559 -0.6547 -0.0000
vn -0.7071 -0.7071 -0.0000
vn -0.9547 -0.2977 -0.0000
vn 0.9239 -0.3827 -0.0000
vn 0.7559 -0.6547 -0.0000
vn 0.7071 -0.7071 -0.0000
vn -0.3827 -0.9239 -0.0000
vn -0.0000 -1.0000 -0.0000
vn -0.4196 -0.9077 -0.0000
vn 0.9547 -0.2977 -0.0000
vn 0.3827 -0.9239 -0.0000
vn 0.4196 -0.9077 -0.0000
vn 0.9472 0.3207 -0.0000
vn -0.7071 0.7071 -0.0000
vn -0.9472 0.3207 -0.0000
vn -0.3827 0.9239 -0.0000
vn 0.9547 0.2977 -0.0000
vn 0.9979 -0.0651 -0.0000
vn 0.7559 0.6547 -0.0000
vn -0.7559 0.6547 -0.0000
vn -0.4196 0.9077 -0.0000
vn 0.4196 0.9077 -0.0000
vn -0.9547 0.2977 -0.0000
vn -0.9979 -0.0651 -0.0000
vn -0.9547 -0.0000 -0.2977
vn -0.7559 -0.0000 -0.6547
vn 0.9547 -0.0000 -0.2977
vn 0.7559 -0.0000 -0.6547
vn 0.4196 -0.0000 -0.9077
vn 0.7559 -0.0000 0.6547
vn 0.9547 -0.0000 0.2977
vn 0.4196 -0.0000 0.9077
vn -0.4196 -0.0000 -0.9077
vn -0.7559 -0.0000 0.6547
vn -0.9547 -0.0000 0.2977
vn -0.4196 -0.0000 0.9077
vn 0.9808 0.1951 -0.0000
vn -0.9808 0.1951 -0.0000
vn -0.9999 0.0162 -0.0000
vn -1.0000 0.0011 -0.0016
vn -1.0000 -0.0000 0.0012
vn -1.0000 0.0011 0.0016
vn -0.0000 1.0000 0.0034
vn 1.0000 -0.0008 -0.0002
vn 0.9998 -0.0184 -0.0037
vn 0.9999 -0.0161 -0.0032
vn -0.9998 0.0185 -0.0000
vt 0.000000 0.000000
s 1
usemtl Track_Remap1
f 4/1/1 15/1/2 7/1/2
f 11/1/3 8/1/3 9/1/3
f 6/1/4 10/1/4 7/1/4
f 9/1/5 6/1/5 3/1/6
f 9/1/7 4/1/7 11/1/7
f 11/1/2 4/1/1 10/1/2
f 10/1/2 4/1/1 7/1/2
f 3/1/8 12/1/3 4/1/8
f 17/1/9 13/1/10 3/1/6
f 3/1/6 14/1/5 2/1/5
f 1/1/11 17/1/11 2/1/11
f 15/1/4 6/1/4 7/1/4
f 27/1/12 85/1/13 94/1/12
f 22/1/14 21/1/15 23/1/5
f 25/1/16 24/1/17 26/1/2
f 18/1/3 94/1/12 89/1/3
f 28/1/18 29/1/19 30/1/20
f 29/1/19 28/1/18 31/1/21
f 88/1/22 42/1/23 93/1/24
f 33/1/21 86/1/2 92/1/18
f 19/1/4 27/1/4 18/1/4
f 34/1/4 27/1/4 19/1/4
f 34/1/4 20/1/4 27/1/4
f 25/1/4 20/1/4 34/1/4
f 25/1/4 21/1/4 20/1/4
f 26/1/4 21/1/4 25/1/4
f 26/1/4 23/1/4 21/1/4
f 28/1/4 23/1/4 26/1/4
f 28/1/4 35/1/4 23/1/4
f 30/1/4 35/1/4 28/1/4
f 30/1/4 36/1/4 35/1/4
f 37/1/4 36/1/4 30/1/4
f 37/1/4 38/1/4 36/1/4
f 38/1/4 37/1/4 39/1/4
f 26/1/2 31/1/21 28/1/18
f 31/1/21 26/1/2 24/1/17
f 96/1/25 46/1/26 49/1/27
f 35/1/22 40/1/23 41/1/28
f 40/1/23 35/1/22 36/1/24
f 32/1/19 92/1/18 87/1/20
f 44/1/26 38/1/29 39/1/26
f 38/1/29 44/1/26 45/1/30
f 22/1/14 90/1/31 21/1/15
f 23/1/5 41/1/28 22/1/14
f 41/1/28 23/1/5 35/1/22
f 87/1/20 49/1/27 32/1/19
f 45/1/30 36/1/24 38/1/29
f 36/1/24 45/1/30 40/1/23
f 34/1/32 91/1/33 25/1/16
f 34/1/32 82/1/34 84/1/32
f 37/1/25 44/1/26 39/1/26
f 44/1/26 37/1/25 48/1/27
f 46/1/26 97/1/29 47/1/30
f 30/1/20 48/1/27 37/1/25
f 48/1/27 30/1/20 29/1/19
f 21/1/15 85/1/13 20/1/13
f 56/1/35 113/1/5 101/1/15
f 52/1/5 53/1/35 54/1/15
f 53/1/35 52/1/5 55/1/36
f 54/1/15 57/1/37 58/1/13
f 57/1/37 54/1/15 53/1/35
f 110/1/16 68/1/38 109/1/32
f 103/1/20 50/1/25 80/1/20
f 63/1/32 64/1/39 65/1/38
f 64/1/39 63/1/32 66/1/34
f 78/1/40 108/1/13 106/1/12
f 69/1/2 70/1/41 71/1/42
f 70/1/41 69/1/2 72/1/16
f 74/1/3 75/1/12 76/1/40
f 75/1/12 74/1/3 77/1/3
f 72/1/16 65/1/38 70/1/41
f 65/1/38 72/1/16 63/1/32
f 109/1/32 67/1/39 112/1/34
f 76/1/40 58/1/13 57/1/37
f 58/1/13 76/1/40 75/1/12
f 60/1/22 55/1/36 52/1/5
f 66/1/34 74/1/3 64/1/39
f 74/1/3 66/1/34 77/1/3
f 105/1/2 73/1/41 110/1/16
f 61/1/24 102/1/22 60/1/22
f 66/1/4 75/1/4 77/1/4
f 63/1/4 75/1/4 66/1/4
f 63/1/4 58/1/4 75/1/4
f 72/1/4 58/1/4 63/1/4
f 72/1/4 54/1/4 58/1/4
f 69/1/4 54/1/4 72/1/4
f 69/1/4 52/1/4 54/1/4
f 81/1/4 52/1/4 69/1/4
f 81/1/4 60/1/4 52/1/4
f 80/1/4 60/1/4 81/1/4
f 80/1/4 61/1/4 60/1/4
f 50/1/4 61/1/4 80/1/4
f 50/1/4 62/1/4 61/1/4
f 62/1/4 50/1/4 51/1/4
f 98/1/25 51/1/26 50/1/25
f 112/1/34 79/1/3 100/1/3
f 71/1/42 81/1/18 69/1/2
f 73/1/43 32/1/44 68/1/44
f 32/1/44 73/1/43 33/1/43
f 43/1/45 59/1/46 42/1/46
f 59/1/46 43/1/45 56/1/45
f 22/1/5 56/1/45 43/1/45
f 56/1/45 22/1/5 55/1/5
f 42/1/46 78/1/47 47/1/47
f 78/1/47 42/1/46 59/1/46
f 40/1/48 53/1/49 41/1/49
f 53/1/49 40/1/48 57/1/48
f 74/1/4 45/1/50 44/1/4
f 45/1/50 74/1/4 76/1/50
f 47/1/47 79/1/7 46/1/7
f 79/1/7 47/1/47 78/1/47
f 41/1/49 55/1/5 22/1/5
f 55/1/5 41/1/49 53/1/49
f 67/1/51 32/1/44 49/1/51
f 32/1/44 67/1/51 68/1/44
f 65/1/52 31/1/53 70/1/53
f 31/1/53 65/1/52 29/1/52
f 48/1/54 74/1/4 44/1/4
f 74/1/4 48/1/54 64/1/54
f 71/1/2 33/1/43 73/1/43
f 33/1/43 71/1/2 24/1/2
f 76/1/50 40/1/48 45/1/50
f 40/1/48 76/1/50 57/1/48
f 79/1/7 49/1/51 46/1/7
f 49/1/51 79/1/7 67/1/51
f 70/1/53 24/1/2 71/1/2
f 24/1/2 70/1/53 31/1/53
f 29/1/52 64/1/54 48/1/54
f 64/1/54 29/1/52 65/1/52
f 19/1/34 89/1/3 82/1/34
f 83/1/5 43/1/28 88/1/22
f 24/1/17 91/1/33 86/1/2
f 47/1/30 93/1/24 42/1/23
f 79/1/3 106/1/12 100/1/3
f 55/1/36 102/1/22 113/1/5
f 71/1/42 111/1/18 81/1/18
f 59/1/37 101/1/15 108/1/13
f 99/1/29 61/1/24 62/1/29
f 81/1/18 103/1/20 80/1/20
f 104/1/26 62/1/29 51/1/26
f 89/1/7 94/1/7 82/1/7
f 82/1/7 85/1/7 84/1/7
f 85/1/7 91/1/7 84/1/7
f 90/1/3 115/1/3 91/1/3
f 90/1/31 83/1/5 114/1/55
f 91/1/33 115/1/56 86/1/2
f 12/1/57 1/1/58 4/1/1
f 1/1/11 14/1/11 15/1/11
f 119/1/59 127/1/2 116/1/60
f 125/1/3 122/1/3 124/1/3
f 124/1/7 120/1/7 121/1/7
f 123/1/5 120/1/5 122/1/5
f 119/1/4 123/1/4 125/1/4
f 125/1/2 124/1/2 119/1/59
f 124/1/2 121/1/2 119/1/59
f 12/1/3 118/1/61 119/1/61
f 118/1/62 13/1/63 17/1/64
f 118/1/62 126/1/5 120/1/5
f 17/1/11 116/1/11 117/1/11
f 127/1/7 120/1/7 126/1/7
f 194/1/13 137/1/12 198/1/12
f 132/1/14 133/1/5 131/1/15
f 135/1/16 136/1/2 134/1/17
f 198/1/12 128/1/3 195/1/3
f 138/1/18 140/1/20 139/1/19
f 139/1/19 141/1/21 138/1/18
f 88/1/22 152/1/23 153/1/28
f 143/1/21 86/1/2 134/1/17
f 129/1/7 128/1/7 137/1/7
f 144/1/7 129/1/7 137/1/7
f 144/1/7 137/1/7 130/1/7
f 135/1/7 144/1/7 130/1/7
f 135/1/7 130/1/7 131/1/7
f 136/1/7 135/1/7 131/1/7
f 136/1/7 131/1/7 133/1/7
f 138/1/7 136/1/7 133/1/7
f 138/1/7 133/1/7 145/1/7
f 140/1/7 138/1/7 145/1/7
f 140/1/7 145/1/7 146/1/7
f 147/1/7 140/1/7 146/1/7
f 147/1/7 146/1/7 148/1/7
f 148/1/7 149/1/7 147/1/7
f 136/1/2 138/1/18 141/1/21
f 141/1/21 134/1/17 136/1/2
f 156/1/26 96/1/25 159/1/27
f 145/1/22 151/1/28 150/1/23
f 150/1/23 146/1/24 145/1/22
f 142/1/19 92/1/18 143/1/21
f 154/1/26 149/1/26 148/1/29
f 148/1/29 155/1/30 154/1/26
f 196/1/31 132/1/14 131/1/15
f 133/1/5 132/1/14 151/1/28
f 151/1/28 145/1/22 133/1/5
f 159/1/27 87/1/20 142/1/19
f 155/1/30 148/1/29 146/1/24
f 146/1/24 150/1/23 155/1/30
f 197/1/33 144/1/32 135/1/16
f 192/1/34 144/1/32 193/1/32
f 147/1/25 149/1/26 154/1/26
f 154/1/26 158/1/27 147/1/25
f 156/1/26 97/1/29 95/1/26
f 140/1/20 147/1/25 158/1/27
f 158/1/27 139/1/19 140/1/20
f 194/1/13 131/1/15 130/1/13
f 166/1/35 113/1/5 165/1/36
f 162/1/5 164/1/15 163/1/35
f 163/1/35 165/1/36 162/1/5
f 164/1/15 168/1/13 167/1/37
f 167/1/37 163/1/35 164/1/15
f 110/1/16 178/1/38 183/1/41
f 160/1/25 103/1/20 190/1/20
f 173/1/32 175/1/38 174/1/39
f 174/1/39 176/1/34 173/1/32
f 108/1/13 188/1/40 106/1/12
f 179/1/2 181/1/42 180/1/41
f 180/1/41 182/1/16 179/1/2
f 184/1/3 186/1/40 185/1/12
f 185/1/12 187/1/3 184/1/3
f 182/1/16 180/1/41 175/1/38
f 175/1/38 173/1/32 182/1/16
f 109/1/32 177/1/39 178/1/38
f 186/1/40 167/1/37 168/1/13
f 168/1/13 185/1/12 186/1/40
f 170/1/22 162/1/5 165/1/36
f 176/1/34 174/1/39 184/1/3
f 184/1/3 187/1/3 176/1/34
f 105/1/2 183/1/41 181/1/42
f 102/1/22 171/1/24 170/1/22
f 176/1/7 187/1/7 185/1/7
f 173/1/7 176/1/7 185/1/7
f 173/1/7 185/1/7 168/1/7
f 182/1/7 173/1/7 168/1/7
f 182/1/7 168/1/7 164/1/7
f 179/1/7 182/1/7 164/1/7
f 179/1/7 164/1/7 162/1/7
f 191/1/7 179/1/7 162/1/7
f 191/1/7 162/1/7 170/1/7
f 190/1/7 191/1/7 170/1/7
f 190/1/7 170/1/7 171/1/7
f 160/1/7 190/1/7 171/1/7
f 160/1/7 171/1/7 172/1/7
f 172/1/7 161/1/7 160/1/7
f 161/1/26 98/1/25 160/1/25
f 112/1/34 189/1/3 177/1/39
f 181/1/42 179/1/2 191/1/18
f 183/1/53 178/1/52 142/1/52
f 142/1/52 143/1/53 183/1/53
f 153/1/49 152/1/48 169/1/48
f 169/1/48 166/1/49 153/1/49
f 132/1/5 153/1/49 166/1/49
f 166/1/49 165/1/5 132/1/5
f 152/1/48 157/1/50 188/1/50
f 188/1/50 169/1/48 152/1/48
f 150/1/46 151/1/45 163/1/45
f 163/1/45 167/1/46 150/1/46
f 184/1/7 154/1/7 155/1/47
f 155/1/47 186/1/47 184/1/7
f 157/1/50 156/1/4 189/1/4
f 189/1/4 188/1/50 157/1/50
f 151/1/45 132/1/5 165/1/5
f 165/1/5 163/1/45 151/1/45
f 177/1/54 159/1/54 142/1/52
f 142/1/52 178/1/52 177/1/54
f 175/1/44 180/1/43 141/1/43
f 141/1/43 139/1/44 175/1/44
f 158/1/51 154/1/7 184/1/7
f 184/1/7 174/1/51 158/1/51
f 181/1/2 183/1/53 143/1/53
f 143/1/53 134/1/2 181/1/2
f 186/1/47 155/1/47 150/1/46
f 150/1/46 167/1/46 186/1/47
f 189/1/4 156/1/4 159/1/54
f 159/1/54 177/1/54 189/1/4
f 180/1/43 181/1/2 134/1/2
f 134/1/2 141/1/43 180/1/43
f 139/1/44 158/1/51 174/1/51
f 174/1/51 175/1/44 139/1/44
f 195/1/3 129/1/34 192/1/34
f 83/1/5 153/1/28 132/1/14
f 134/1/17 197/1/33 135/1/16
f 157/1/30 93/1/24 97/1/29
f 106/1/12 189/1/3 100/1/3
f 165/1/36 102/1/22 170/1/22
f 111/1/18 181/1/42 191/1/18
f 169/1/37 101/1/15 166/1/35
f 171/1/24 99/1/29 172/1/29
f 103/1/20 191/1/18 190/1/20
f 172/1/29 104/1/26 161/1/26
f 195/1/4 192/1/4 198/1/4
f 194/1/4 192/1/4 193/1/4
f 197/1/4 194/1/4 193/1/4
f 115/1/3 196/1/3 197/1/3
f 196/1/31 114/1/55 83/1/5
f 197/1/33 86/1/2 115/1/56
f 12/1/57 116/1/60 16/1/65
f 116/1/11 126/1/11 117/1/11
f 4/1/1 1/1/58 15/1/2
f 11/1/3 10/1/3 8/1/3
f 6/1/4 8/1/4 10/1/4
f 9/1/5 8/1/5 6/1/5
f 9/1/7 3/1/7 4/1/7
f 3/1/8 13/1/3 12/1/3
f 3/1/6 2/1/5 17/1/9
f 17/1/4 5/1/4 13/1/4
f 3/1/6 6/1/5 14/1/5
f 1/1/11 16/1/11 17/1/11
f 15/1/4 14/1/4 6/1/4
f 27/1/12 20/1/13 85/1/13
f 18/1/3 27/1/12 94/1/12
f 88/1/22 43/1/28 42/1/23
f 33/1/21 24/1/17 86/1/2
f 96/1/25 95/1/26 46/1/26
f 32/1/19 33/1/21 92/1/18
f 22/1/14 83/1/5 90/1/31
f 87/1/20 96/1/25 49/1/27
f 34/1/32 84/1/32 91/1/33
f 34/1/32 19/1/34 82/1/34
f 46/1/26 95/1/26 97/1/29
f 21/1/15 90/1/31 85/1/13
f 56/1/35 55/1/36 113/1/5
f 110/1/16 73/1/41 68/1/38
f 103/1/20 98/1/25 50/1/25
f 78/1/40 59/1/37 108/1/13
f 109/1/32 68/1/38 67/1/39
f 105/1/2 71/1/42 73/1/41
f 61/1/24 107/1/24 102/1/22
f 98/1/25 104/1/26 51/1/26
f 112/1/34 67/1/39 79/1/3
f 19/1/34 18/1/3 89/1/3
f 83/1/5 22/1/14 43/1/28
f 24/1/17 25/1/16 91/1/33
f 47/1/30 97/1/29 93/1/24
f 79/1/3 78/1/40 106/1/12
f 55/1/36 60/1/22 102/1/22
f 71/1/42 105/1/2 111/1/18
f 59/1/37 56/1/35 101/1/15
f 99/1/29 107/1/24 61/1/24
f 81/1/18 111/1/18 103/1/20
f 104/1/26 99/1/29 62/1/29
f 82/1/7 94/1/7 85/1/7
f 85/1/7 90/1/7 91/1/7
f 90/1/3 114/1/3 115/1/3
f 12/1/57 16/1/65 1/1/58
f 1/1/11 2/1/11 14/1/11
f 119/1/59 121/1/2 127/1/2
f 125/1/3 123/1/3 122/1/3
f 124/1/7 122/1/7 120/1/7
f 123/1/5 118/1/62 120/1/5
f 119/1/4 118/1/4 123/1/4
f 12/1/3 13/1/3 118/1/61
f 17/1/64 117/1/5 118/1/62
f 118/1/62 117/1/5 126/1/5
f 17/1/11 16/1/11 116/1/11
f 127/1/7 121/1/7 120/1/7
f 194/1/13 130/1/13 137/1/12
f 198/1/12 137/1/12 128/1/3
f 88/1/22 93/1/24 152/1/23
f 143/1/21 92/1/18 86/1/2
f 156/1/26 95/1/26 96/1/25
f 142/1/19 87/1/20 92/1/18
f 196/1/31 83/1/5 132/1/14
f 159/1/27 96/1/25 87/1/20
f 197/1/33 193/1/32 144/1/32
f 192/1/34 129/1/34 144/1/32
f 156/1/26 157/1/30 97/1/29
f 194/1/13 196/1/31 131/1/15
f 166/1/35 101/1/15 113/1/5
f 110/1/16 109/1/32 178/1/38
f 160/1/25 98/1/25 103/1/20
f 108/1/13 169/1/37 188/1/40
f 109/1/32 112/1/34 177/1/39
f 105/1/2 110/1/16 183/1/41
f 102/1/22 107/1/24 171/1/24
f 161/1/26 104/1/26 98/1/25
f 112/1/34 100/1/3 189/1/3
f 195/1/3 128/1/3 129/1/34
f 83/1/5 88/1/22 153/1/28
f 134/1/17 86/1/2 197/1/33
f 157/1/30 152/1/23 93/1/24
f 106/1/12 188/1/40 189/1/3
f 165/1/36 113/1/5 102/1/22
f 111/1/18 105/1/2 181/1/42
f 169/1/37 108/1/13 101/1/15
f 171/1/24 107/1/24 99/1/29
f 103/1/20 111/1/18 191/1/18
f 172/1/29 99/1/29 104/1/26
f 194/1/4 198/1/4 192/1/4
f 197/1/4 196/1/4 194/1/4
f 115/1/3 114/1/3 196/1/3
f 12/1/57 119/1/59 116/1/60
f 116/1/11 127/1/11 126/1/11
