# Blender 3.6.0
# www.blender.org
mtllib materials.mtl
o hydraulic.001
v 0.043289 0.064787 -0.462000
v 0.070125 0.070125 0.462000
v 0.070125 0.070125 -0.462000
v 0.043289 0.064787 0.462000
v 0.119711 0.049586 0.462000
v 0.134912 0.026836 -0.462000
v 0.119711 0.049586 -0.462000
v 0.134912 0.026836 0.462000
v 0.140250 0.000000 -0.379500
v 0.140250 0.000000 -0.462000
v 0.140250 0.000000 0.379500
v 0.140250 0.000000 0.462000
v 0.000000 0.000000 -0.379500
v 0.005338 0.026836 -0.462000
v 0.000000 0.000000 -0.462000
v 0.000000 0.000000 0.379500
v 0.005338 0.026836 0.462000
v 0.000000 0.000000 0.462000
v 0.096961 0.064787 -0.462000
v 0.096961 0.064787 0.462000
v 0.020539 -0.049586 -0.429086
v 0.005338 -0.026836 -0.462000
v 0.020539 -0.049586 -0.462000
v 0.005338 -0.026836 -0.406336
v 0.005338 -0.026836 0.462000
v 0.020539 -0.049586 0.429086
v 0.020539 -0.049586 0.462000
v 0.005338 -0.026836 0.406336
v 0.020539 -0.049586 0.329914
v 0.005338 -0.026836 -0.352664
v 0.020539 -0.049586 -0.329914
v 0.005338 -0.026836 0.352664
v 0.020539 0.049586 0.462000
v 0.134912 -0.026836 0.462000
v 0.119711 -0.049586 0.462000
v 0.043289 -0.064787 0.462000
v 0.096961 -0.064787 0.462000
v 0.070125 -0.070125 0.462000
v 0.134912 -0.026836 -0.462000
v 0.119711 -0.049586 -0.429086
v 0.119711 -0.049586 -0.462000
v 0.134912 -0.026836 -0.406336
v 0.119711 -0.049586 0.429086
v 0.134912 -0.026836 0.406336
v 0.134912 -0.026836 -0.352664
v 0.119711 -0.049586 0.329914
v 0.119711 -0.049586 -0.329914
v 0.134912 -0.026836 0.352664
v 0.070125 -0.070125 -0.449625
v 0.096961 -0.064787 -0.462000
v 0.096961 -0.064787 -0.444287
v 0.070125 -0.070125 -0.462000
v 0.070125 -0.070125 0.449625
v 0.096961 -0.064787 0.444287
v 0.070125 -0.070125 0.309375
v 0.096961 -0.064787 -0.314713
v 0.096961 -0.064787 0.314713
v 0.070125 -0.070125 -0.309375
v 0.020539 0.049586 -0.462000
v 0.043289 -0.064787 -0.462000
v 0.043289 -0.064787 -0.444287
v 0.043289 -0.064787 0.444287
v 0.043289 -0.064787 0.314713
v 0.043289 -0.064787 -0.314713
v 0.043289 -1.054787 0.462000
v 0.070125 -1.060125 -0.462000
v 0.070125 -1.060125 0.462000
v 0.043289 -1.054787 -0.462000
v 0.134912 -0.963164 -0.406336
v 0.140250 -0.990000 -0.462000
v 0.134912 -0.963164 -0.462000
v 0.140250 -0.990000 -0.379500
v 0.140250 -0.990000 0.462000
v 0.134912 -0.963164 0.406336
v 0.134912 -0.963164 0.462000
v 0.140250 -0.990000 0.379500
v 0.134912 -0.963164 0.352664
v 0.134912 -0.963164 -0.352664
v 0.119711 -0.940414 0.429086
v 0.119711 -0.940414 0.462000
v 0.119711 -0.940414 -0.429086
v 0.119711 -0.940414 -0.462000
v 0.119711 -0.940414 0.329914
v 0.119711 -0.940414 -0.329914
v 0.134912 -1.016836 0.462000
v 0.119711 -1.039586 -0.462000
v 0.134912 -1.016836 -0.462000
v 0.119711 -1.039586 0.462000
v 0.096961 -1.054787 -0.462000
v 0.096961 -1.054787 0.462000
v 0.020539 -0.940414 0.462000
v 0.043289 -0.925213 0.444287
v 0.020539 -0.940414 0.429086
v 0.043289 -0.925213 0.462000
v 0.020539 -0.940414 -0.462000
v 0.043289 -0.925213 -0.444287
v 0.043289 -0.925213 -0.462000
v 0.020539 -0.940414 -0.429086
v 0.020539 -0.940414 -0.329914
v 0.043289 -0.925213 0.314713
v 0.043289 -0.925213 -0.314713
v 0.020539 -0.940414 0.329914
v 0.000000 -0.990000 -0.462000
v 0.005338 -0.963164 -0.406336
v 0.005338 -0.963164 -0.462000
v 0.000000 -0.990000 -0.379500
v 0.000000 -0.990000 0.462000
v 0.005338 -0.963164 0.406336
v 0.000000 -0.990000 0.379500
v 0.005338 -0.963164 0.462000
v 0.005338 -0.963164 0.352664
v 0.005338 -0.963164 -0.352664
v 0.070125 -0.919875 0.449625
v 0.096961 -0.925213 0.462000
v 0.096961 -0.925213 0.444287
v 0.070125 -0.919875 0.462000
v 0.070125 -0.919875 -0.449625
v 0.096961 -0.925213 -0.462000
v 0.070125 -0.919875 -0.462000
v 0.096961 -0.925213 -0.444287
v 0.070125 -0.919875 -0.309375
v 0.096961 -0.925213 0.314713
v 0.096961 -0.925213 -0.314713
v 0.070125 -0.919875 0.309375
v 0.020539 -1.039586 0.462000
v 0.020539 -1.039586 -0.462000
v 0.005338 -1.016836 0.462000
v 0.005338 -1.016836 -0.462000
vn -0.3827 0.9239 -0.0000
vn -0.0000 1.0000 -0.0000
vn 0.7071 0.7071 -0.0000
vn 0.9239 0.3827 -0.0000
vn 0.9979 0.0651 -0.0000
vn 1.0000 -0.0000 -0.0000
vn -0.9979 0.0651 -0.0000
vn -0.9239 0.3827 -0.0000
vn -1.0000 -0.0000 -0.0000
vn 0.3827 0.9239 -0.0000
vn -0.7559 -0.6547 -0.0000
vn -0.9239 -0.3827 -0.0000
vn -0.7071 -0.7071 -0.0000
vn -0.9547 -0.2977 -0.0000
vn -0.0000 -0.0000 1.0000
vn 0.9239 -0.3827 -0.0000
vn 0.7559 -0.6547 -0.0000
vn 0.7071 -0.7071 -0.0000
vn 0.9547 -0.2977 -0.0000
vn -0.0000 -1.0000 -0.0000
vn 0.3827 -0.9239 -0.0000
vn 0.4196 -0.9077 -0.0000
vn -0.7071 0.7071 -0.0000
vn -0.3827 -0.9239 -0.0000
vn -0.4196 -0.9077 -0.0000
vn -0.0000 -0.0000 -1.0000
vn 0.9547 0.2977 -0.0000
vn 0.9979 -0.0651 -0.0000
vn 0.7559 0.6547 -0.0000
vn -0.4196 0.9077 -0.0000
vn -0.7559 0.6547 -0.0000
vn -0.9547 0.2977 -0.0000
vn -0.9979 -0.0651 -0.0000
vn 0.4196 0.9077 -0.0000
vn -0.9547 -0.0000 -0.2977
vn -0.7559 -0.0000 -0.6547
vn 0.9547 -0.0000 -0.2977
vn 0.7559 -0.0000 -0.6547
vn 0.4196 -0.0000 -0.9077
vn 0.7559 -0.0000 0.6547
vn 0.9547 -0.0000 0.2977
vn 0.4196 -0.0000 0.9077
vn -0.4196 -0.0000 -0.9077
vn -0.7559 -0.0000 0.6547
vn -0.9547 -0.0000 0.2977
vn -0.4196 -0.0000 0.9077
s 1
usemtl Track_Remap1
f 1//1 2//2 3//2
f 2//2 1//1 4//1
f 5//3 6//4 7//3
f 6//4 5//3 8//4
f 6//4 9//5 10//6
f 6//4 11//5 9//5
f 8//4 11//5 6//4
f 11//5 8//4 12//6
f 13//7 14//8 15//9
f 16//7 14//8 13//7
f 17//8 16//7 18//9
f 16//7 17//8 14//8
f 19//10 5//3 7//3
f 5//3 19//10 20//10
f 21//11 22//12 23//13
f 22//12 21//11 24//14
f 25//12 26//11 27//13
f 26//11 25//12 28//14
f 29//11 30//14 31//11
f 30//14 29//11 32//14
f 4//15 20//15 2//15
f 33//15 20//15 4//15
f 33//15 5//15 20//15
f 17//15 5//15 33//15
f 17//15 8//15 5//15
f 18//15 8//15 17//15
f 18//15 12//15 8//15
f 25//15 12//15 18//15
f 25//15 34//15 12//15
f 27//15 34//15 25//15
f 27//15 35//15 34//15
f 36//15 35//15 27//15
f 36//15 37//15 35//15
f 37//15 36//15 38//15
f 24//14 15//9 22//12
f 15//9 24//14 13//7
f 18//9 28//14 25//12
f 28//14 18//9 16//7
f 32//14 13//7 30//14
f 13//7 32//14 16//7
f 39//16 40//17 41//18
f 40//17 39//16 42//19
f 34//16 43//17 44//19
f 43//17 34//16 35//18
f 45//19 46//17 47//17
f 46//17 45//19 48//19
f 49//20 50//21 51//22
f 50//21 49//20 52//20
f 53//20 37//21 38//20
f 37//21 53//20 54//22
f 55//20 56//22 57//22
f 56//22 55//20 58//20
f 12//6 44//19 11//5
f 44//19 12//6 34//16
f 10//6 42//19 39//16
f 42//19 10//6 9//5
f 9//5 48//19 45//19
f 48//19 9//5 11//5
f 17//8 59//23 14//8
f 59//23 17//8 33//23
f 51//22 41//18 40//17
f 41//18 51//22 50//21
f 54//22 35//18 37//21
f 35//18 54//22 43//17
f 57//22 47//17 46//17
f 47//17 57//22 56//22
f 3//2 20//10 19//10
f 20//10 3//2 2//2
f 59//23 4//1 1//1
f 4//1 59//23 33//23
f 60//24 49//20 61//25
f 49//20 60//24 52//20
f 36//24 53//20 38//20
f 53//20 36//24 62//25
f 63//25 58//20 55//20
f 58//20 63//25 64//25
f 19//26 1//26 3//26
f 7//26 1//26 19//26
f 7//26 59//26 1//26
f 6//26 59//26 7//26
f 6//26 14//26 59//26
f 10//26 14//26 6//26
f 10//26 15//26 14//26
f 39//26 15//26 10//26
f 39//26 22//26 15//26
f 41//26 22//26 39//26
f 41//26 23//26 22//26
f 50//26 23//26 41//26
f 50//26 60//26 23//26
f 60//26 50//26 52//26
f 23//13 61//25 21//11
f 61//25 23//13 60//24
f 27//13 62//25 36//24
f 62//25 27//13 26//11
f 29//11 64//25 63//25
f 64//25 29//11 31//11
f 65//24 66//20 67//20
f 66//20 65//24 68//24
f 69//27 70//6 71//4
f 70//6 69//27 72//28
f 73//6 74//27 75//4
f 74//27 73//6 76//28
f 77//27 72//28 78//27
f 72//28 77//27 76//28
f 75//4 79//29 80//3
f 79//29 75//4 74//27
f 81//29 71//4 82//3
f 71//4 81//29 69//27
f 83//29 78//27 84//29
f 78//27 83//29 77//27
f 85//16 86//18 87//16
f 86//18 85//16 88//18
f 67//20 89//21 90//21
f 89//21 67//20 66//20
f 91//23 92//30 93//31
f 92//30 91//23 94//1
f 95//23 96//30 97//1
f 96//30 95//23 98//31
f 99//31 100//30 101//30
f 100//30 99//31 102//31
f 103//9 104//32 105//8
f 104//32 103//9 106//33
f 107//9 108//32 109//33
f 108//32 107//9 110//8
f 106//33 111//32 112//32
f 111//32 106//33 109//33
f 113//2 114//10 115//34
f 114//10 113//2 116//2
f 117//2 118//10 119//2
f 118//10 117//2 120//34
f 121//2 122//34 123//34
f 122//34 121//2 124//2
f 110//8 93//31 108//32
f 93//31 110//8 91//23
f 105//8 98//31 95//23
f 98//31 105//8 104//32
f 112//32 102//31 99//31
f 102//31 112//32 111//32
f 120//34 82//3 118//10
f 82//3 120//34 81//29
f 115//34 80//3 79//29
f 80//3 115//34 114//10
f 123//34 83//29 84//29
f 83//29 123//34 122//34
f 72//28 87//16 70//6
f 76//28 87//16 72//28
f 85//16 76//28 73//6
f 76//28 85//16 87//16
f 90//21 86//18 88//18
f 86//18 90//21 89//21
f 97//1 117//2 119//2
f 117//2 97//1 96//30
f 94//1 113//2 92//30
f 113//2 94//1 116//2
f 101//30 124//2 121//2
f 124//2 101//30 100//30
f 125//13 68//24 65//24
f 68//24 125//13 126//13
f 94//15 114//15 116//15
f 91//15 114//15 94//15
f 91//15 80//15 114//15
f 110//15 80//15 91//15
f 110//15 75//15 80//15
f 107//15 75//15 110//15
f 107//15 73//15 75//15
f 127//15 73//15 107//15
f 127//15 85//15 73//15
f 125//15 85//15 127//15
f 125//15 88//15 85//15
f 65//15 88//15 125//15
f 65//15 90//15 88//15
f 90//15 65//15 67//15
f 125//13 128//12 126//13
f 128//12 125//13 127//12
f 128//12 106//33 103//9
f 128//12 109//33 106//33
f 127//12 109//33 128//12
f 109//33 127//12 107//9
f 118//26 97//26 119//26
f 82//26 97//26 118//26
f 82//26 95//26 97//26
f 71//26 95//26 82//26
f 71//26 105//26 95//26
f 70//26 105//26 71//26
f 70//26 103//26 105//26
f 87//26 103//26 70//26
f 87//26 128//26 103//26
f 86//26 128//26 87//26
f 86//26 126//26 128//26
f 89//26 126//26 86//26
f 89//26 68//26 126//26
f 68//26 89//26 66//26
f 111//35 29//36 102//36
f 29//36 111//35 32//35
f 48//37 83//38 46//38
f 83//38 48//37 77//37
f 11//6 77//37 48//37
f 77//37 11//6 76//6
f 46//38 122//39 57//39
f 122//39 46//38 83//38
f 43//40 74//41 44//41
f 74//41 43//40 79//40
f 113//15 54//42 53//15
f 54//42 113//15 115//42
f 57//39 124//26 55//26
f 124//26 57//39 122//39
f 44//41 76//6 11//6
f 76//6 44//41 74//41
f 100//43 29//36 63//43
f 29//36 100//43 102//36
f 93//44 28//45 108//45
f 28//45 93//44 26//44
f 62//46 113//15 53//15
f 113//15 62//46 92//46
f 109//9 32//35 111//35
f 32//35 109//9 16//9
f 115//42 43//40 54//42
f 43//40 115//42 79//40
f 124//26 63//43 55//26
f 63//43 124//26 100//43
f 108//45 16//9 109//9
f 16//9 108//45 28//45
f 26//44 92//46 62//46
f 92//46 26//44 93//44
f 42//37 81//38 40//38
f 81//38 42//37 69//37
f 9//6 69//37 42//37
f 69//37 9//6 72//6
f 40//38 120//39 51//39
f 120//39 40//38 81//38
f 112//45 13//9 106//9
f 13//9 112//45 30//45
f 123//42 47//40 56//42
f 47//40 123//42 84//40
f 104//35 21//36 98//36
f 21//36 104//35 24//35
f 64//46 121//15 58//15
f 121//15 64//46 101//46
f 51//39 117//26 49//26
f 117//26 51//39 120//39
f 117//26 61//43 49//26
f 61//43 117//26 96//43
f 47//40 78//41 45//41
f 78//41 47//40 84//40
f 45//41 72//6 9//6
f 72//6 45//41 78//41
f 99//44 30//45 112//45
f 30//45 99//44 31//44
f 121//15 56//42 58//15
f 56//42 121//15 123//42
f 106//9 24//35 104//35
f 24//35 106//9 13//9
f 96//43 21//36 61//43
f 21//36 96//43 98//36
f 31//44 101//46 64//46
f 101//46 31//44 99//44
